<svg width="149" height="51" viewBox="0 0 149 51" fill="none" xmlns="http://www.w3.org/2000/svg">
<path d="M57.2656 13.7664H62.0921V18.5929H68.5275V23.4194H62.0921V29.8547C62.0921 31.6363 62.7187 33.1537 63.9753 34.4069C65.2285 35.6634 66.7459 36.29 68.5275 36.29V41.1165C65.4182 41.1165 62.7628 40.0158 60.5646 37.8176C58.3664 35.6194 57.2656 32.964 57.2656 29.8547V13.7664Z" fill="#FF6C2E"/>
<path d="M92.6575 41.113H87.831V39.1181C85.9647 40.4492 83.8207 41.113 81.3956 41.113C78.2863 41.113 75.6309 40.0123 73.4327 37.8141C71.2346 35.6159 70.1338 32.9605 70.1338 29.8512C70.1338 26.7419 71.2346 24.0865 73.4327 21.8883C75.6309 19.6901 78.2863 18.5894 81.3956 18.5894C84.5049 18.5894 87.1603 19.6901 89.3585 21.8883C91.5567 24.0865 92.6575 26.7419 92.6575 29.8512V41.113ZM85.9478 34.4067C87.2044 33.1535 87.831 31.6362 87.831 29.8546C87.831 28.073 87.2044 26.5556 85.9478 25.3024C84.6946 24.0458 83.1738 23.4192 81.3956 23.4192C79.6174 23.4192 78.0967 24.0458 76.8435 25.3024C75.5869 26.5556 74.9603 28.0764 74.9603 29.8546C74.9603 31.6328 75.5869 33.1535 76.8435 34.4067C78.0967 35.6633 79.6141 36.2899 81.3956 36.2899C83.1772 36.2899 84.6946 35.6633 85.9478 34.4067Z" fill="#FF6C2E"/>
<path d="M95.9114 13.7664H100.738V20.5878C102.604 19.2567 104.748 18.5929 107.173 18.5929C110.283 18.5929 112.938 19.6936 115.136 21.8918C117.334 24.09 118.435 26.7454 118.435 29.8547C118.435 32.964 117.334 35.6194 115.136 37.8176C112.938 40.0158 110.283 41.1165 107.173 41.1165C104.064 41.1165 101.409 40.0158 99.2103 37.8176C97.0122 35.6194 95.9114 32.964 95.9114 29.8547V13.7664ZM102.621 25.2992C101.364 26.5524 100.738 28.0731 100.738 29.8513C100.738 31.6295 101.364 33.1503 102.621 34.4035C103.874 35.6601 105.392 36.2867 107.173 36.2867C108.955 36.2867 110.472 35.6601 111.725 34.4035C112.982 33.1503 113.609 31.6329 113.609 29.8513C113.609 28.0697 112.982 26.5524 111.725 25.2992C110.472 24.0426 108.951 23.416 107.173 23.416C105.395 23.416 103.874 24.0426 102.621 25.2992Z" fill="#FF6C2E"/>
<path d="M120.043 13.7664H124.869V20.5878C126.736 19.2567 128.88 18.5929 131.305 18.5929C134.414 18.5929 137.07 19.6936 139.268 21.8918C141.466 24.09 142.567 26.7454 142.567 29.8547C142.567 32.964 141.466 35.6194 139.268 37.8176C137.07 40.0158 134.414 41.1165 131.305 41.1165C128.196 41.1165 125.54 40.0158 123.342 37.8176C121.144 35.6194 120.043 32.964 120.043 29.8547V13.7664ZM126.753 25.2992C125.496 26.5524 124.869 28.0731 124.869 29.8513C124.869 31.6295 125.496 33.1503 126.753 34.4035C128.006 35.6601 129.523 36.2867 131.305 36.2867C133.086 36.2867 134.604 35.6601 135.857 34.4035C137.114 33.1503 137.74 31.6329 137.74 29.8513C137.74 28.0697 137.114 26.5524 135.857 25.2992C134.604 24.0426 133.083 23.416 131.305 23.416C129.527 23.416 128.006 24.0426 126.753 25.2992Z" fill="#FF6C2E"/>
<path d="M149 13.7664V18.5929H144.174V13.7664H149ZM149 20.2017V41.1132H144.174V20.2017H149Z" fill="#FF6C2E"/>
<path fill-rule="evenodd" clip-rule="evenodd" d="M14.0523 6.08263C12.6915 5.71821 12.8115 4.93402 8.82594 4.93402C4.84039 4.93402 1.46836 7.98314 0.319752 11.7934C-0.496731 14.4919 0.292074 18.3529 2.21104 20.3273C2.98139 21.1207 3.59491 21.7526 4.58207 22.3477C6.32113 23.3948 7.67732 23.2703 7.67732 23.75V28.4552H4.85423C4.09772 28.4552 3.39194 29.1794 3.39194 30.3372C3.39194 30.9923 4.20381 31.7995 4.85423 31.7995H8.71984C8.71984 35.6651 8.40616 38.3037 9.94226 41.8649C10.8694 44.0145 11.5568 44.485 12.6869 45.915C13.4757 46.9114 15.4685 48.1891 16.6263 48.7704C20.4135 50.6755 25.1694 50.717 28.9612 48.8073C29.3672 48.6043 29.6947 48.4659 30.0637 48.2353C34.1415 45.6751 36.9415 41.3482 36.9415 36.4032V31.8041H40.8072C41.5637 31.8041 42.2694 31.0799 42.2694 29.9221C42.2694 29.267 41.4576 28.4598 40.8072 28.4598H37.9841V23.7546C37.9841 23.381 38.3116 23.4271 38.6299 23.3533C42.6984 22.4215 46.029 18.1084 45.6369 13.9153C45.4385 11.7749 45.0372 10.0267 43.5011 8.31066C42.5739 7.27275 41.739 6.48395 40.4197 5.85198C37.9287 4.65263 34.6166 4.56498 32.1211 5.86582C31.8812 5.99037 31.9319 6.01343 31.6136 6.08724C31.2861 4.68492 29.7362 2.90895 28.5968 1.9956C24.5698 -1.2242 18.6422 -0.476913 15.3532 3.72544C14.9426 4.25131 14.2138 5.40453 14.057 6.08724M12.1749 36.8137V31.7949H33.5003C33.5003 35.9235 33.9939 39.0741 31.443 42.4876L30.2206 43.8761C28.44 45.2646 27.6466 45.9657 25.1648 46.5516C23.6379 46.916 22.171 46.9344 20.6073 46.57C17.858 45.9334 17.2352 45.2231 15.4639 43.8715C14.8043 43.3641 13.7018 41.7265 13.2958 40.9192C12.7653 39.8583 12.1795 38.3406 12.1795 36.8091L12.1749 36.8137Z" fill="#FF6C2E"/>
</svg>
