<svg width="81" height="28" viewBox="0 0 81 28" fill="none" xmlns="http://www.w3.org/2000/svg">
    <path d="M31.1307 7.48371H33.7545V10.1075H37.2529V12.7313H33.7545V16.2297C33.7545 17.1982 34.0952 18.023 34.7783 18.7043C35.4595 19.3874 36.2844 19.728 37.2529 19.728V22.3518C35.5626 22.3518 34.1191 21.7534 32.9241 20.5585C31.7292 19.3635 31.1307 17.9199 31.1307 16.2297V7.48371Z" fill="#FF6C2E"/>
    <path d="M50.3705 22.3499H47.7467V21.2654C46.7322 21.989 45.5667 22.3499 44.2483 22.3499C42.5581 22.3499 41.1145 21.7515 39.9195 20.5566C38.7246 19.3616 38.1262 17.918 38.1262 16.2278C38.1262 14.5375 38.7246 13.094 39.9195 11.899C41.1145 10.704 42.5581 10.1056 44.2483 10.1056C45.9386 10.1056 47.3821 10.704 48.5771 11.899C49.7721 13.094 50.3705 14.5375 50.3705 16.2278V22.3499ZM46.723 18.7043C47.4061 18.023 47.7467 17.1981 47.7467 16.2296C47.7467 15.2611 47.4061 14.4362 46.723 13.755C46.0417 13.0719 45.215 12.7312 44.2483 12.7312C43.2817 12.7312 42.4549 13.0719 41.7737 13.755C41.0906 14.4362 40.7499 15.2629 40.7499 16.2296C40.7499 17.1963 41.0906 18.023 41.7737 18.7043C42.4549 19.3874 43.2798 19.728 44.2483 19.728C45.2168 19.728 46.0417 19.3874 46.723 18.7043Z" fill="#FF6C2E"/>
    <path d="M52.1394 7.48371H54.7631V11.192C55.7777 10.4684 56.9432 10.1075 58.2615 10.1075C59.9518 10.1075 61.3953 10.7059 62.5903 11.9009C63.7853 13.0958 64.3837 14.5394 64.3837 16.2297C64.3837 17.9199 63.7853 19.3635 62.5903 20.5585C61.3953 21.7534 59.9518 22.3518 58.2615 22.3518C56.5713 22.3518 55.1277 21.7534 53.9327 20.5585C52.7378 19.3635 52.1394 17.9199 52.1394 16.2297V7.48371ZM55.7869 13.7532C55.1038 14.4344 54.7631 15.2612 54.7631 16.2278C54.7631 17.1945 55.1038 18.0212 55.7869 18.7025C56.4681 19.3856 57.293 19.7262 58.2615 19.7262C59.23 19.7262 60.0549 19.3856 60.7362 18.7025C61.4193 18.0212 61.7599 17.1963 61.7599 16.2278C61.7599 15.2593 61.4193 14.4344 60.7362 13.7532C60.0549 13.0701 59.2282 12.7294 58.2615 12.7294C57.2949 12.7294 56.4681 13.0701 55.7869 13.7532Z" fill="#FF6C2E"/>
    <path d="M65.2578 7.48371H67.8816V11.192C68.8961 10.4684 70.0616 10.1075 71.38 10.1075C73.0703 10.1075 74.5138 10.7059 75.7088 11.9009C76.9037 13.0959 77.5022 14.5394 77.5022 16.2297C77.5022 17.9199 76.9037 19.3635 75.7088 20.5585C74.5138 21.7534 73.0703 22.3518 71.38 22.3518C69.6897 22.3518 68.2462 21.7534 67.0512 20.5585C65.8562 19.3635 65.2578 17.9199 65.2578 16.2297V7.48371ZM68.9053 13.7532C68.2222 14.4344 67.8816 15.2612 67.8816 16.2278C67.8816 17.1945 68.2222 18.0212 68.9053 18.7025C69.5866 19.3856 70.4115 19.7262 71.38 19.7262C72.3485 19.7262 73.1734 19.3856 73.8546 18.7025C74.5377 18.0212 74.8784 17.1963 74.8784 16.2278C74.8784 15.2593 74.5377 14.4344 73.8546 13.7532C73.1734 13.0701 72.3466 12.7294 71.38 12.7294C70.4133 12.7294 69.5866 13.0701 68.9053 13.7532Z" fill="#FF6C2E"/>
    <path d="M80.9996 7.48371V10.1075H78.3759V7.48371H80.9996ZM80.9996 10.9821V22.35H78.3759V10.9821H80.9996Z" fill="#FF6C2E"/>
    <path fill-rule="evenodd" clip-rule="evenodd" d="M7.63915 3.30667C6.89938 3.10856 6.96459 2.68226 4.79796 2.68226C2.63134 2.68226 0.798233 4.33983 0.173824 6.41116C-0.270033 7.87815 0.158778 9.97706 1.20197 11.0503C1.62075 11.4817 1.95427 11.8252 2.49091 12.1487C3.4363 12.7179 4.17355 12.6502 4.17355 12.911V15.4689H2.63886C2.2276 15.4689 1.84393 15.8626 1.84393 16.492C1.84393 16.8481 2.28528 17.2869 2.63886 17.2869H4.74028C4.74028 19.3883 4.56976 20.8227 5.40482 22.7586C5.90886 23.9272 6.2825 24.183 6.89688 24.9604C7.32569 25.502 8.409 26.1966 9.03842 26.5126C11.0972 27.5483 13.6826 27.5708 15.7439 26.5327C15.9646 26.4223 16.1426 26.3471 16.3433 26.2217C18.56 24.83 20.0822 22.4778 20.0822 19.7896V17.2894H22.1836C22.5949 17.2894 22.9785 16.8957 22.9785 16.2663C22.9785 15.9102 22.5372 15.4714 22.1836 15.4714H20.6489V12.9135C20.6489 12.7104 20.827 12.7355 21 12.6954C23.2118 12.1888 25.0223 9.84416 24.8091 7.56469C24.7013 6.40113 24.4831 5.45072 23.6481 4.51787C23.1441 3.95365 22.6902 3.52484 21.973 3.18129C20.6188 2.52929 18.8183 2.48165 17.4617 3.18881C17.3313 3.25652 17.3589 3.26906 17.1858 3.30918C17.0078 2.54685 16.1652 1.5814 15.5458 1.08488C13.3566 -0.665473 10.1343 -0.259231 8.34631 2.02525C8.12313 2.31113 7.72692 2.93804 7.64165 3.30918M6.61853 20.0127V17.2844H18.2115C18.2115 19.5288 18.4798 21.2415 17.0931 23.0972L16.4285 23.852C15.4606 24.6068 15.0292 24.988 13.6801 25.3064C12.8501 25.5045 12.0526 25.5146 11.2025 25.3165C9.70797 24.9704 9.36944 24.5842 8.40649 23.8495C8.0479 23.5736 7.44856 22.6834 7.22789 22.2446C6.93951 21.6678 6.62103 20.8428 6.62103 20.0102L6.61853 20.0127Z" fill="#FF6C2E"/>
    </svg>
    