<svg width="165" height="42" viewBox="0 0 165 42" fill="none" xmlns="http://www.w3.org/2000/svg">
<g clip-path="url(#clip0_2172_6559)">
<path d="M24.6953 12.0884V23.2658C24.6953 28.7889 20.2185 33.2658 14.6953 33.2658C9.17215 33.2658 4.69531 28.7889 4.69531 23.2658C4.69531 17.7426 9.17215 13.2658 14.6953 13.2658H15.8067V19.9328H14.6953C12.8546 19.9328 11.3623 21.4251 11.3623 23.2658C11.3623 25.1065 12.8546 26.5988 14.6953 26.5988C16.536 26.5988 18.0283 25.1065 18.0283 23.2658V8.64265C16.9556 8.39884 15.8412 8.26678 14.6953 8.26678C6.41108 8.26678 -0.304688 14.9826 -0.304688 23.2668C-0.304688 31.551 6.41108 38.2668 14.6953 38.2668C22.9795 38.2668 29.6953 31.551 29.6953 23.2668C29.6953 18.8255 27.7632 14.8363 24.6953 12.0894V12.0884Z" fill="white"/>
<path d="M60.89 31.3133C62.7185 31.3133 64.0909 30.4905 64.8223 29.4238L67.5356 31.0086C66.1338 33.0809 63.8471 34.3314 60.8595 34.3314C55.83 34.3314 52.5681 30.8867 52.5681 26.3143C52.5681 21.742 55.83 18.2973 60.6157 18.2973C65.4013 18.2973 68.267 21.9553 68.267 26.3448C68.267 26.8019 68.2061 27.2895 68.1451 27.7162H56.0129C56.531 30.0943 58.4519 31.3133 60.89 31.3133ZM64.9442 25.0344C64.4871 22.4125 62.5661 21.2849 60.5852 21.2849C58.1157 21.2849 56.4395 22.7477 55.9824 25.0344H64.9442Z" fill="white"/>
<path d="M70.4003 12.252H73.6927V33.9342H70.4003V12.252Z" fill="white"/>
<path d="M76.019 14.304C76.019 13.1459 76.9637 12.2001 78.1218 12.2001C79.2798 12.2001 80.2246 13.1449 80.2246 14.304C80.2246 15.463 79.2798 16.4068 78.1218 16.4068C76.9637 16.4068 76.019 15.4316 76.019 14.304ZM76.4761 18.6934H79.7685V33.9342H76.4761V18.6934Z" fill="white"/>
<path d="M97.241 18.6934L91.2973 33.9342H87.4869L81.5431 18.6934H85.1403L89.4078 30.2771L93.6449 18.6934H97.242H97.241Z" fill="white"/>
<path d="M105.526 31.3133C107.355 31.3133 108.727 30.4905 109.459 29.4238L112.172 31.0086C110.77 33.0809 108.483 34.3314 105.496 34.3314C100.466 34.3314 97.2044 30.8867 97.2044 26.3143C97.2044 21.742 100.466 18.2973 105.252 18.2973C110.038 18.2973 112.903 21.9553 112.903 26.3448C112.903 26.8019 112.842 27.2895 112.781 27.7162H100.649C101.167 30.0943 103.088 31.3133 105.526 31.3133ZM109.581 25.0344C109.123 22.4125 107.202 21.2849 105.222 21.2849C102.752 21.2849 101.076 22.7477 100.619 25.0344H109.581Z" fill="white"/>
<path d="M122.623 18.4192V21.9858C120.459 21.8334 117.929 22.8391 117.929 26.2534V33.9352H114.636V18.6944H117.929V21.2554C118.843 19.1831 120.703 18.4202 122.623 18.4202V18.4192Z" fill="white"/>
<path d="M131.36 31.3133C133.189 31.3133 134.561 30.4905 135.293 29.4238L138.006 31.0086C136.604 33.0809 134.317 34.3314 131.33 34.3314C126.3 34.3314 123.038 30.8867 123.038 26.3143C123.038 21.742 126.3 18.2973 131.086 18.2973C135.872 18.2973 138.737 21.9553 138.737 26.3448C138.737 26.8019 138.676 27.2895 138.615 27.7162H126.483C127.001 30.0943 128.922 31.3133 131.36 31.3133ZM135.415 25.0344C134.957 22.4125 133.036 21.2849 131.056 21.2849C128.586 21.2849 126.91 22.7477 126.453 25.0344H135.415Z" fill="white"/>
<path d="M140.033 26.3133C140.033 21.7715 143.477 18.2962 148.08 18.2962C151.068 18.2962 153.658 19.8505 154.878 22.2286L152.043 23.8743C151.372 22.4419 149.879 21.5277 148.05 21.5277C145.367 21.5277 143.325 23.5695 143.325 26.3133C143.325 29.0571 145.367 31.099 148.05 31.099C149.878 31.099 151.372 30.1542 152.104 28.7513L154.939 30.3665C153.659 32.7751 151.068 34.3294 148.08 34.3294C143.477 34.3294 140.033 30.8237 140.033 26.3123V26.3133Z" fill="white"/>
<path d="M161.524 21.8629V29.179C161.524 31.1294 162.804 31.099 165.304 30.9771V33.9342C160.244 34.5437 158.231 33.1418 158.231 29.179V21.8629H155.427V18.6924H158.231V14.1404H161.524V18.6924H165.304V21.8629H161.524Z" fill="white"/>
<path d="M47.3914 12.252V19.8332C46.0565 18.8621 44.3987 18.2962 42.5935 18.2962C38.1431 18.2962 34.546 21.7715 34.546 26.3133C34.546 30.8552 38.1431 34.3304 42.5935 34.3304C47.0439 34.3304 50.6411 30.8247 50.6411 26.3133V12.252H47.3914ZM42.5935 31.1294C39.9107 31.1294 37.8383 29.0876 37.8383 26.3133C37.8383 23.539 39.9107 21.4972 42.5935 21.4972C45.2764 21.4972 47.3487 23.539 47.3487 26.3133C47.3487 29.0876 45.2753 31.1294 42.5935 31.1294Z" fill="white"/>
</g>
<defs>
<clipPath id="clip0_2172_6559">
<rect width="165" height="42" fill="white"/>
</clipPath>
</defs>
</svg>
