<svg width="165" height="47" viewBox="0 0 165 47" fill="none" xmlns="http://www.w3.org/2000/svg">
<path fill-rule="evenodd" clip-rule="evenodd" d="M18.1072 29.5411H14.8305V10.574H18.1072V29.5411ZM13.2033 14.878C13.2033 15.8172 12.4324 16.5783 11.4811 16.5783C10.5297 16.5783 9.75877 15.8172 9.75877 14.878C9.75877 13.9388 10.5297 13.1783 11.4811 13.1783C12.4324 13.1783 13.2033 13.9388 13.2033 14.878ZM6.86451 22.4763C8.20786 22.4763 9.104 21.6185 9.104 20.2912C9.104 18.9645 8.18169 18.0545 6.78542 18.0545C5.52058 18.0545 4.62502 18.9386 4.62502 20.3434C4.62502 21.696 5.46825 22.4763 6.86451 22.4763ZM3.94036 30.6441C3.94036 31.5282 4.94118 32.1534 6.62762 32.1534C8.92003 32.1534 10.2111 31.4249 10.2111 30.4621C10.2111 29.7078 9.60508 29.4212 8.36699 29.3696L5.33662 29.2134C4.38813 29.6555 3.94036 30.0717 3.94036 30.6441ZM1.41052 26.4559C1.41052 25.4931 2.12173 24.5574 3.46566 23.8805C2.20139 23.1267 1.54251 21.9039 1.54251 20.317C1.54251 17.5338 3.65001 15.5836 6.78563 15.5836C8.07209 15.5836 9.35286 15.9931 10.3372 16.8227C10.9876 17.3704 11.4991 18.0882 11.779 18.887C11.969 19.4279 12.0287 20.0076 12.0287 20.5777C12.0287 23.2048 10.0789 24.9219 6.86472 24.9219C6.28494 24.9219 5.78424 24.8697 5.36262 24.7652C4.75667 24.9994 4.46706 25.3117 4.46706 25.6757C4.46706 26.4506 5.38307 26.5099 7.11724 26.6222L7.11844 26.6223C7.42168 26.6419 7.7501 26.6631 8.10281 26.6901C11.66 26.9502 13.1616 27.6265 13.1616 30.2278C13.1616 32.9071 10.9221 34.4416 6.68037 34.4416C2.80735 34.4416 0.831299 33.2446 0.831299 31.0338C0.831299 29.7593 1.59486 29.0572 3.22839 28.537C1.9903 27.9394 1.41052 27.3923 1.41052 26.4559ZM25.8502 27.0371C27.6209 27.0371 28.4664 25.602 28.4664 22.7064C28.4664 19.8103 27.6209 18.4015 25.8502 18.4015C24.1063 18.4015 23.234 19.8103 23.234 22.7064C23.234 25.602 24.1063 27.0371 25.8502 27.0371ZM25.8503 15.6091C29.5503 15.6091 31.7698 18.2188 31.7698 22.7062C31.7698 27.1932 29.5235 29.8029 25.8503 29.8029C22.1769 29.8029 19.9306 27.1674 19.9306 22.7062C19.9306 18.2188 22.1508 15.6091 25.8503 15.6091ZM42.1824 22.7061C42.1824 25.5495 41.0724 27.0892 39.2488 27.0892C38.3504 27.0892 37.6102 26.6977 36.7908 25.9152V19.4185C37.6369 18.6619 38.3766 18.2704 39.275 18.2704C41.0456 18.2704 42.1824 19.8359 42.1824 22.7061ZM33.5932 10.575V26.3588C33.5932 27.011 33.5403 28.081 33.4344 29.5414H35.9715L36.3157 28.081C37.4519 29.2808 38.5882 29.8027 40.0681 29.8027C43.2128 29.8027 45.4591 26.9593 45.4591 22.706C45.4591 18.2973 43.1599 15.6095 40.1739 15.6095C38.7731 15.6095 37.7689 16.0791 36.8175 17.1755V10.575H33.5932ZM49.6603 25.7847C49.6603 26.6981 50.189 27.2463 51.1403 27.2463C52.1713 27.2463 53.1755 26.7762 54.1798 25.8106V22.8885C51.1141 23.306 49.6603 24.167 49.6603 25.7847ZM54.2589 28.3415C52.9907 29.2542 51.616 29.698 50.1362 29.698C47.8107 29.698 46.4367 28.3151 46.4367 26.0453C46.4367 22.9929 48.9999 21.3753 54.2851 20.7231V19.6536C54.2851 18.6622 53.5984 18.0882 52.3295 18.0882C51.0613 18.0882 50.0303 18.6358 49.2907 19.6536L47.0705 18.2707C48.2335 16.4963 50.0041 15.6094 52.383 15.6094C55.633 15.6094 57.4566 17.149 57.4566 19.6536V27.6894C57.4566 28.1596 57.5363 28.7852 57.6682 29.5413H54.5497L54.2589 28.3415ZM63.5075 29.5411H60.2307V10.574H63.5075V29.5411ZM68.2531 25.8886C69.6272 27.6107 70.8693 28.4718 72.4021 28.4718C74.6752 28.4718 76.0225 26.4626 76.0225 22.7318C76.0225 19.001 74.6752 16.9923 72.4021 16.9923C70.8693 16.9923 69.6272 17.827 68.2531 19.5486V25.8886ZM66.6143 15.8964H67.8303L68.253 17.6703H68.385C69.68 16.3138 71.0541 15.6352 72.534 15.6352C75.5468 15.6352 77.661 18.2179 77.661 22.7059C77.661 27.1934 75.5468 29.7761 72.534 29.7761C71.0541 29.7761 69.68 29.124 68.385 27.7669H68.253V34.4984H66.6143V15.8964ZM80.3564 26.0715C80.3564 23.7494 82.4968 22.8883 87.1482 21.8712V26.0715C85.5363 27.6887 84.1623 28.4981 82.6556 28.4981C81.2286 28.4981 80.3564 27.5848 80.3564 26.0715ZM82.4444 29.8017C84.1354 29.8017 85.6414 29.1244 87.1481 27.7409C87.1749 28.3155 87.2802 28.9154 87.4127 29.5411H89.0247C88.8659 28.6806 88.7868 28.0543 88.7868 27.7145V19.2361C88.7868 17.2011 86.9632 15.6609 84.347 15.6609C81.9682 15.6609 80.515 16.5742 79.431 18.4531L80.6999 19.1839C81.5193 17.7223 82.6288 16.9915 84.1354 16.9915C86.038 16.9915 87.1749 17.9049 87.1749 19.2361V20.5662C81.3866 21.5835 78.7176 22.9927 78.7176 26.149C78.7176 28.2633 80.1714 29.8017 82.4444 29.8017ZM90.2391 15.8966H91.8777L95.9476 27.5064L99.9907 15.8966H101.551L96.3436 30.6115C95.3923 33.324 94.2822 34.4458 91.9039 34.4458C91.4811 34.4458 91.0055 34.4205 90.4769 34.3418V33.0376C90.8997 33.1156 91.2962 33.142 91.6399 33.142C93.6216 33.142 94.52 32.0461 95.0486 29.4629L90.2391 15.8966ZM104.695 15.8965H103.188V29.5414H104.774V19.6009C106.148 17.9057 107.496 17.0705 108.764 17.0705C110.719 17.0705 111.142 18.2186 111.142 20.6188V29.5414H112.728V19.6009C114.076 17.9057 115.451 17.0705 116.719 17.0705C118.675 17.0705 119.098 18.2186 119.098 20.6188V29.5414H120.657V20.0447C120.657 17.1227 119.494 15.6617 117.168 15.6617C115.689 15.6617 114.235 16.4442 112.728 18.0096H112.544C111.91 16.4442 110.8 15.6617 109.241 15.6617C107.787 15.6617 106.254 16.4442 104.8 18.0096H104.695V15.8965ZM128.374 16.966C126.206 16.966 124.673 18.5837 124.41 21.5057H131.995C131.914 18.5573 130.54 16.966 128.374 16.966ZM133.606 26.2538C132.39 28.7062 130.831 29.7763 128.399 29.7763C124.965 29.7763 122.771 27.0885 122.771 22.8095C122.771 18.2967 125.043 15.6354 128.347 15.6354C131.677 15.6354 133.527 17.9052 133.527 22.236V22.6797H124.409C124.436 26.4622 125.889 28.4714 128.506 28.4714C130.276 28.4714 131.413 27.6109 132.39 25.6017L133.606 26.2538ZM137.305 15.8965H135.667V29.5414H137.305V19.6009C138.786 17.9057 140.237 17.0705 141.612 17.0705C143.726 17.0705 144.203 18.2186 144.203 20.6188V29.5414H145.816V20.0447C145.816 17.1227 144.572 15.6617 142.089 15.6617C140.555 15.6617 138.943 16.4442 137.305 18.036V15.8965ZM152.553 28.5238C152.923 28.5238 153.4 28.4193 154.006 28.2625V29.5674C153.4 29.7247 152.765 29.828 152.155 29.828C150.253 29.828 149.434 28.8889 149.434 26.906V17.2273H147.373V15.8966H149.434V11.8524H151.046V15.8966H153.927V17.2273H151.046V26.9847C151.046 28.0278 151.523 28.5238 152.553 28.5238ZM162.676 25.9932C162.676 27.4279 161.539 28.4979 159.821 28.4979C158.208 28.4979 156.834 27.6891 155.646 26.123L154.429 27.0886C155.803 28.9153 157.468 29.7758 159.636 29.7758C162.489 29.7758 164.34 28.1329 164.34 25.863C164.34 23.6971 162.94 22.8623 160.19 21.8446C159.969 21.7619 159.757 21.684 159.554 21.6094C157.645 20.9084 156.543 20.5043 156.543 19.1838C156.543 17.8531 157.521 16.9403 159.028 16.9403C160.561 16.9403 161.698 17.5924 162.754 18.9748L163.917 18.1401C162.701 16.4966 161.116 15.6355 159.318 15.6355C156.57 15.6355 154.852 17.1745 154.852 19.2618C154.852 21.3486 156.306 22.1321 159.107 23.1494C159.246 23.2005 159.382 23.2498 159.513 23.2977C161.534 24.0335 162.676 24.4493 162.676 25.9932Z" fill="white"/>
</svg>
