<svg width="165" height="42" viewBox="0 0 165 42" fill="none" xmlns="http://www.w3.org/2000/svg">
<g clip-path="url(#clip0_2172_6550)">
<path d="M121.937 4.10683C126.5 -0.195492 133.931 2.08283 135.328 8.14123C135.798 10.1784 135.435 12.2839 134.377 14.0553C134.276 14.2226 134.119 14.4581 133.906 14.7618C132.666 16.5221 131.421 18.2795 130.173 20.0339C129.635 20.7888 129.227 21.4944 128.257 21.6035C127.57 21.6808 126.838 21.6868 126.2 21.474C125.819 21.3471 125.566 21.0805 125.311 20.7221C123.944 18.7979 122.576 16.8738 121.208 14.9499C120.82 14.4039 120.465 13.8617 120.194 13.2728C118.775 10.1903 119.451 6.45011 121.937 4.10683ZM130.806 12.2071C132.702 9.50585 130.647 5.79243 127.397 5.89263C125.411 5.95335 123.828 7.34768 123.509 9.30459C123.455 9.63662 123.472 9.97034 123.472 10.3066C123.472 10.3673 123.502 10.4149 123.505 10.4786C123.51 10.5556 123.513 10.5984 123.515 10.6072C123.667 11.4492 124.019 11.9701 124.524 12.6915C125.502 14.0853 126.477 15.4657 127.451 16.8329C127.479 16.8723 127.507 16.8723 127.535 16.8329C128.657 15.2574 129.748 13.7155 130.806 12.2071Z" fill="white"/>
<path d="M59.3593 34.3289C59.3593 35.5088 58.4855 36.4293 57.2979 36.4259C56.3205 36.4234 55.5516 35.8116 55.2854 34.8618C55.268 34.8002 55.2828 34.714 55.2493 34.6418C55.2439 34.6302 55.2412 34.6179 55.2412 34.6049V13.213C55.2412 13.2088 55.2425 13.2046 55.2449 13.201C55.2473 13.1974 55.2508 13.1947 55.2548 13.1931C55.2743 13.1851 55.2823 13.1574 55.2786 13.1098C55.2763 13.0793 55.278 13.052 55.2837 13.0279C55.7868 10.8978 58.857 10.9271 59.3185 13.0648C59.3278 13.1081 59.3177 13.1841 59.3491 13.2381C59.3561 13.25 59.3597 13.263 59.3597 13.2771C59.36 20.2944 59.3598 27.3116 59.3593 34.3289Z" fill="white"/>
<path d="M30.0336 20.529C31.5277 16.1074 35.3171 12.8657 39.985 12.3226C43.281 11.9397 46.6467 12.5396 49.4312 14.4303C50.1534 14.9207 50.5092 15.462 50.5495 16.3579C50.5509 16.391 50.5426 16.4465 50.5245 16.5243C50.5071 16.5999 50.5249 16.6801 50.5058 16.7536C50.326 17.4377 49.9356 17.9167 49.3343 18.1904C48.6147 18.5182 47.8317 18.415 47.2029 17.9322C47.0914 17.8468 46.8528 17.6895 46.4871 17.4605C44.7858 16.3965 42.7601 15.9201 40.7505 16.1273C38.2387 16.3863 36.131 17.8418 34.9413 20.053C33.9461 21.903 33.6014 23.9991 33.9478 26.0919C34.6501 30.3373 37.9504 33.0381 42.248 32.8573C44.123 32.7783 45.8328 32.2147 47.3774 31.1666C47.4742 31.1007 47.5345 31.0332 47.535 30.9054C47.5352 29.5247 47.5352 28.1459 47.535 26.7691C47.535 26.751 47.5278 26.7335 47.515 26.7206C47.5022 26.7078 47.4848 26.7005 47.4666 26.7003C45.9978 26.6958 44.5204 26.695 43.0344 26.6978C42.971 26.6981 42.9244 26.6923 42.8947 26.6804C42.8816 26.6753 42.8682 26.6727 42.8543 26.6727C41.8506 26.6889 41.0231 25.9556 41.0218 24.9328C41.0218 24.926 41.0177 24.9143 41.0095 24.8976C41.0036 24.8854 41.0033 24.8731 41.0087 24.8606C41.0528 24.76 41.0159 24.6292 41.0481 24.4997C41.229 23.7741 41.7763 23.1686 42.5457 23.0909C42.628 23.0829 42.6947 23.0561 42.7737 23.0561C45.0783 23.0561 47.3828 23.0561 49.6872 23.0561C49.7008 23.0561 49.7132 23.06 49.7245 23.0676C49.7768 23.1024 49.8345 23.0812 49.8876 23.0939C50.7321 23.2977 51.3524 23.862 51.512 24.74C51.5261 24.816 51.5142 24.9468 51.5392 25.0453C51.5517 25.0937 51.5579 25.1343 51.5579 25.1672C51.5579 27.3563 51.5579 29.5455 51.5579 31.7346C51.5579 31.8361 51.5103 31.9321 51.5295 32.0493C51.5317 32.0634 51.529 32.0764 51.5214 32.0883C51.4866 32.1439 51.4959 32.2004 51.4866 32.245C51.2433 33.3774 50.3593 33.9777 49.4341 34.5271C45.9079 36.6212 41.5245 37.2882 37.5691 36.0658C31.2258 34.1055 28.3204 27.5733 29.8 21.3451C29.8663 21.0657 29.9441 20.7937 30.0336 20.529Z" fill="white"/>
<path d="M76.4841 19.0938C79.0919 20.3786 80.859 22.8424 81.3651 25.6889C81.8882 28.6308 81.0136 31.5575 78.9964 33.7292C76.8624 36.0267 73.5825 36.9947 70.517 36.565C66.0542 35.9396 62.7641 32.4801 62.4983 27.9404C62.365 25.6625 63.077 23.4428 64.4467 21.6485C65.5264 20.2342 67.0494 19.1902 68.7312 18.6085C71.2736 17.7283 74.0759 17.9075 76.4841 19.0938ZM67.215 24.6057C65.6432 27.9392 67.17 32.23 71.0477 32.9807C71.3087 33.0314 71.5717 33.0573 71.8366 33.0584C71.9351 33.0588 72.0345 33.1025 72.1466 33.0856C72.2612 33.068 72.327 33.0591 72.344 33.0588C72.6437 33.0517 72.9402 33.0149 73.2335 32.9484C75.4651 32.444 76.9291 30.6875 77.3121 28.4809C77.7286 26.0825 76.7074 23.5146 74.5344 22.3185C73.4237 21.7071 72.065 21.5419 70.8337 21.7708C69.2314 22.068 67.9062 23.1405 67.215 24.6057Z" fill="white"/>
<path d="M120.542 25.6991C121.704 32.4611 115.833 37.678 109.278 36.5065C103.99 35.5623 100.718 30.5398 101.89 25.314C103.032 20.2233 108.031 17.2609 113.081 18.2328C116.927 18.9733 119.874 21.8125 120.542 25.6991ZM107.447 23.1151C105.073 25.4546 105.236 29.8809 107.908 31.9338C108.711 32.5503 109.614 32.9121 110.618 33.0194C114.041 33.3854 116.537 30.7971 116.561 27.5032C116.576 25.3871 115.621 23.4106 113.751 22.3534C111.752 21.2236 109.096 21.4898 107.447 23.1151Z" fill="white"/>
<path d="M91.5861 31.3925C91.603 31.4545 91.6233 31.4556 91.6468 31.3959C93.1696 27.5226 94.6892 23.6431 96.2055 19.7576C96.5703 18.8227 97.2127 18.2367 98.2469 18.2155C98.2747 18.2149 98.3184 18.223 98.3781 18.2397C98.438 18.2563 98.5068 18.2448 98.5633 18.255C99.8315 18.4906 100.492 19.7071 100.077 20.9235C100.046 21.0135 99.9611 21.2187 99.8213 21.5392C97.9158 25.9069 96.0166 30.2775 94.1132 34.6461C93.72 35.5483 93.1426 36.3279 92.1461 36.5614C91.8204 36.6378 91.2918 36.6272 90.9615 36.5521C89.9332 36.3185 89.4156 35.4736 89.025 34.579C86.1678 28.0356 84.2364 23.608 83.2307 21.2963C82.939 20.6267 82.857 19.9389 83.2324 19.2749C83.9826 17.9493 85.934 17.8593 86.767 19.1394C86.8559 19.2761 86.9738 19.5324 87.1207 19.9083C88.6062 23.7075 90.0853 27.509 91.558 31.3127C91.5722 31.3495 91.5815 31.3761 91.5861 31.3925Z" fill="white"/>
<path d="M127.673 27.408C128.918 27.2925 129.835 26.2124 129.723 24.9954C129.61 23.7785 128.509 22.8856 127.264 23.0011C126.019 23.1166 125.101 24.1967 125.214 25.4137C125.327 26.6306 126.428 27.5235 127.673 27.408Z" fill="white"/>
</g>
<defs>
<clipPath id="clip0_2172_6550">
<rect width="106.783" height="35.3679" fill="white" transform="translate(29.1084 1.58276)"/>
</clipPath>
</defs>
</svg>
