<svg width="165" height="42" viewBox="0 0 165 42" fill="none" xmlns="http://www.w3.org/2000/svg">
<mask id="mask0_2262_11731" style="mask-type:luminance" maskUnits="userSpaceOnUse" x="16" y="5" width="133" height="35">
<path d="M16 5H149V39.58H16V5Z" fill="white"/>
</mask>
<g mask="url(#mask0_2262_11731)">
<path d="M64.7268 20.8713C64.7268 12.1217 53.7844 5 40.3629 5C26.8821 5 16 12.1208 16 20.8713V21.7775C16 31.0707 25.5521 38.6135 40.3629 38.6135C55.2953 38.6135 64.7268 31.0698 64.7268 21.7757V20.8713Z" fill="white"/>
<path d="M63.7598 20.8715C63.7598 29.1396 53.3007 35.8384 40.3634 35.8384C27.4269 35.8384 16.9678 29.1396 16.9678 20.8715C16.9678 12.6042 27.426 5.90454 40.3634 5.90454C53.3007 5.96572 63.7598 12.6042 63.7598 20.8715Z" fill="white"/>
<path d="M32.5648 16.1649C32.5648 16.1649 32.3228 16.4061 32.4443 16.6473C32.8069 17.1305 33.9551 17.3717 35.1043 17.1305C35.7693 16.9487 36.6754 16.2855 37.5222 15.6214C38.4293 14.897 39.3354 14.1735 40.3028 13.8711C41.2701 13.5696 41.8748 13.6902 42.2978 13.8108C42.7819 13.9314 43.2651 14.2338 44.1119 14.897C45.7434 16.1046 52.1522 21.7163 53.2401 22.6819C54.1472 22.2599 58.1372 20.5699 63.5166 19.3631C63.1549 16.4664 61.401 13.8108 58.741 11.6385C55.0534 13.2079 50.5198 13.9917 46.0457 11.8194C46.0457 11.8194 43.6278 10.6729 41.2701 10.7332C37.7643 10.7935 36.2516 12.3629 34.6201 13.9314L32.5648 16.1649Z" fill="#FF6C2E"/>
<path d="M53.0584 23.2256C52.9981 23.1653 45.5023 16.5871 43.8096 15.32C42.8423 14.5956 42.2978 14.4148 41.6931 14.2942C41.3917 14.2339 40.9679 14.2942 40.6655 14.4148C39.8799 14.6559 38.8523 15.3192 37.9452 16.0444C36.9787 16.8283 36.0708 17.4924 35.2852 17.6733C34.2567 17.9747 32.9267 17.6733 32.3237 17.3115C32.0808 17.1306 31.8999 16.9488 31.8396 16.768C31.5976 16.2856 32.0205 15.8636 32.0808 15.8024L34.137 13.5698L34.8623 12.8453C34.1973 12.9056 33.5926 13.0865 32.9879 13.2683C32.2626 13.4492 31.5373 13.6903 30.812 13.6903C30.5096 13.6903 28.8773 13.4492 28.5749 13.3286C26.7005 12.8453 25.0681 12.3027 22.5899 11.1562C19.6276 13.3286 17.6929 16.0444 17.1484 19.0618C17.5723 19.1824 18.2373 19.3632 18.5396 19.4235C25.1896 20.8723 27.2449 22.4409 27.6679 22.7432C28.0908 22.3203 28.6352 22.0188 29.3002 22.0188C30.0255 22.0188 30.6905 22.3806 31.1143 22.9844C31.5589 22.6261 32.1145 22.4339 32.6855 22.4409C32.9879 22.4409 33.2902 22.5012 33.6529 22.6217C33.9465 22.7192 34.2165 22.8769 34.4456 23.0849C34.6746 23.2929 34.8576 23.5465 34.9829 23.8294C35.2249 23.7079 35.5273 23.6476 35.8899 23.6476C36.2526 23.6476 36.6152 23.7088 36.9778 23.8897C38.1873 24.4323 38.3681 25.64 38.3079 26.5444H38.5499C40.0005 26.5444 41.2099 27.752 41.2099 29.1999C41.2099 29.6229 41.0893 30.0449 40.9076 30.4678C41.3305 30.709 42.2978 31.1914 43.204 31.0708C43.9302 31.0105 44.1723 30.7693 44.2929 30.5884C44.3531 30.467 44.4134 30.4067 44.3531 30.287L42.4796 28.174C42.4796 28.174 42.1773 27.8726 42.2979 27.752C42.4193 27.6314 42.6002 27.8123 42.7208 27.9329C43.6881 28.7176 44.8373 29.9243 44.8373 29.9243C44.8373 29.9243 44.9579 30.1052 45.3808 30.1655C45.7443 30.2258 46.4093 30.1655 46.8926 29.8037C47.0131 29.6832 47.1346 29.5626 47.194 29.4411C47.6781 28.8382 47.1346 28.2352 47.1346 28.2352L44.9579 25.7605C44.9579 25.7605 44.6564 25.4591 44.777 25.3376C44.8976 25.217 45.0784 25.3979 45.1999 25.5185C45.8649 26.1223 46.8926 27.0879 47.7996 27.9923C47.9805 28.1138 48.8273 28.6573 49.9152 27.9329C50.5802 27.5099 50.7008 26.9664 50.7008 26.5444C50.6405 26.0017 50.2176 25.6399 50.2176 25.6399L47.194 22.6217C47.194 22.6217 46.8926 22.3806 47.0131 22.1997C47.1346 22.0791 47.3155 22.26 47.437 22.3806C48.4034 23.1653 51.0031 25.5194 51.0031 25.5194C51.0643 25.5194 51.9102 26.1826 53.0593 25.4582C53.4823 25.217 53.7243 24.8553 53.7243 24.372C53.6029 23.7088 53.0593 23.2256 53.0593 23.2256H53.0584Z" fill="#FF6C2E"/>
<path d="M38.5498 27.0276C38.0657 27.0276 37.5824 27.2687 37.5213 27.2687C37.4618 27.2687 37.5213 27.0878 37.5824 26.9673C37.6427 26.8467 38.2474 25.0361 36.7357 24.372C35.5874 23.8896 34.9224 24.4323 34.6804 24.6734C34.6201 24.7346 34.5598 24.7346 34.5598 24.6734C34.5598 24.372 34.378 23.4676 33.4107 23.1652C32.0204 22.7432 31.1142 23.7088 30.8721 24.0696C30.7507 23.2858 30.0857 22.6217 29.2398 22.6217C28.3327 22.6217 27.6074 23.3461 27.6074 24.2514C27.6063 24.5741 27.7014 24.8897 27.8804 25.1582C28.0594 25.4266 28.3143 25.6357 28.6126 25.7587C28.9109 25.8816 29.2391 25.913 29.5553 25.8488C29.8715 25.7845 30.1614 25.6275 30.388 25.3979V25.4582C30.3277 25.8811 30.2071 27.329 31.718 27.932C32.3227 28.174 32.8671 27.9931 33.2901 27.6917C33.4107 27.5711 33.4107 27.6314 33.4107 27.752C33.3504 28.1137 33.4107 28.9578 34.5598 29.3808C35.4057 29.7434 35.9501 29.3808 36.2524 29.0793C36.373 28.9587 36.4333 28.9587 36.4333 29.1999C36.4646 29.7235 36.695 30.2153 37.0773 30.5744C37.4597 30.9335 37.965 31.1327 38.4895 31.131C38.7598 31.1335 39.0279 31.0822 39.2781 30.98C39.5284 30.8778 39.7558 30.7268 39.9471 30.5358C40.1384 30.3449 40.2897 30.1177 40.3924 29.8677C40.495 29.6176 40.5468 29.3496 40.5448 29.0793C40.6051 27.9931 39.698 27.0878 38.5498 27.0276Z" fill="#FF6C2E"/>
<path d="M53.3605 22.4408C51.064 20.4493 45.6829 15.8023 44.2926 14.7161C43.4467 14.1132 42.9023 13.7505 42.4182 13.63C42.1223 13.5521 41.8179 13.5116 41.512 13.5094C41.1484 13.5094 40.7255 13.5697 40.3629 13.6903C39.4558 13.9917 38.4893 14.7161 37.5823 15.4405L37.522 15.5008C36.6752 16.1649 35.8284 16.8282 35.1634 17.009C34.862 17.0702 34.5596 17.1305 34.3176 17.1305C33.5923 17.1305 32.9273 16.8885 32.6861 16.587C32.6249 16.5267 32.6861 16.4664 32.7455 16.3458L34.7405 14.052C36.3135 12.4835 37.8243 10.9762 41.2699 10.9141H41.4508C43.6276 10.9141 45.7432 11.8806 45.9852 12.0003C48.0405 12.9667 50.0967 13.4491 52.2123 13.4491C54.3882 13.4491 56.6252 12.9056 59.0432 11.8194C58.802 11.5782 58.4996 11.3973 58.1973 11.1553C56.142 12.0606 54.147 12.4835 52.2123 12.4835C50.2776 12.4835 48.2826 12.0003 46.4082 11.095C46.2876 11.0347 43.9299 9.94852 41.4517 9.94852H41.2699C38.3679 10.0088 36.7355 11.0347 35.6485 11.94C34.5596 11.94 33.6535 12.2414 32.8058 12.4835C32.0805 12.6644 31.4155 12.8453 30.8108 12.8453H30.0855C29.3602 12.8453 25.794 11.9409 22.9523 10.8538C22.6499 11.0347 22.4079 11.2767 22.1055 11.5179C25.0679 12.7247 28.6952 13.6903 29.8443 13.7505C30.1458 13.7505 30.5093 13.8108 30.8108 13.8108C31.537 13.8108 32.3226 13.63 33.0479 13.3888C33.4708 13.2682 33.9549 13.1467 34.4382 13.0261L34.0152 13.4491L31.9599 15.6817C31.7782 15.8626 31.4155 16.2846 31.6585 16.8282C31.7782 17.0702 31.9599 17.2511 32.202 17.4311C32.6852 17.7335 33.5923 17.9755 34.3779 17.9755C34.6802 17.9755 34.9826 17.9755 35.2246 17.854C36.0705 17.6732 36.9776 16.9496 37.9449 16.1649C38.7305 15.5611 39.8193 14.7764 40.6049 14.5352C40.847 14.475 41.1493 14.4147 41.3302 14.4147H41.512C42.0555 14.475 42.5999 14.6558 43.5673 15.3802C45.2599 16.6482 52.7567 23.2255 52.817 23.2858C52.817 23.2858 53.3002 23.7078 53.2399 24.3719C53.2399 24.7346 52.9979 25.0963 52.6352 25.3384C52.3338 25.5184 51.9702 25.6399 51.6688 25.6399C51.1846 25.6399 50.822 25.3978 50.822 25.3978C50.822 25.3978 48.2223 23.0446 47.2549 22.2599C47.1343 22.1393 46.9535 22.0187 46.832 22.0187C46.7708 22.0187 46.7105 22.079 46.6502 22.1393C46.5296 22.3202 46.6502 22.5614 46.8923 22.7422L49.9149 25.7604C49.9149 25.7604 50.2785 26.1222 50.3379 26.5443C50.3379 27.0275 50.0967 27.4495 49.6126 27.8122C49.2499 28.0534 48.8873 28.174 48.5246 28.174C48.0405 28.174 47.7382 27.9931 47.6779 27.9328L47.2549 27.5098C46.4693 26.726 45.6829 25.9404 45.0782 25.4581C44.9576 25.3375 44.7767 25.2169 44.6552 25.2169C44.5949 25.2169 44.5346 25.2169 44.4743 25.2772C44.4132 25.3375 44.3529 25.5184 44.5346 25.7002C44.5949 25.8207 44.6552 25.881 44.6552 25.881L46.832 28.3548C46.832 28.3548 47.2549 28.8984 46.8923 29.3807L46.832 29.5022L46.6502 29.6831C46.2876 29.9845 45.8043 30.0448 45.5623 30.0448H45.2599C45.0179 29.9845 44.8964 29.9242 44.837 29.8639C44.7155 29.7434 43.6276 28.596 42.7205 27.8725C42.5999 27.7519 42.4793 27.6313 42.2976 27.6313C42.2373 27.6313 42.177 27.6313 42.1167 27.6916C41.9349 27.8725 42.2373 28.174 42.2976 28.2945L44.172 30.3463C44.172 30.3463 44.172 30.4075 44.1108 30.4678C44.0505 30.5883 43.8093 30.7692 43.1443 30.8898H42.9023C42.177 30.8898 41.4508 30.5281 41.0882 30.3463C41.2699 29.9845 41.3302 29.5625 41.3302 29.1404C41.3302 27.6313 40.0605 26.3634 38.5496 26.3634H38.4282C38.4893 25.639 38.3679 24.3116 37.0379 23.7681C36.6752 23.5872 36.2523 23.5269 35.8896 23.5269C35.5873 23.5269 35.2849 23.5872 35.0429 23.7078C34.7414 23.1652 34.3176 22.7431 33.6526 22.5614C33.3228 22.443 32.9753 22.3818 32.6249 22.3805C32.0805 22.3805 31.537 22.5613 31.0529 22.8637C30.6299 22.3202 29.9046 21.9584 29.2396 21.9584C28.6349 21.9584 28.0302 22.1996 27.5461 22.6216C26.9423 22.1996 24.6449 20.6905 18.4782 19.3029C18.1767 19.2426 17.5117 19.0617 17.0879 18.9402C17.0276 19.3029 16.9673 19.6052 16.907 19.967C16.907 19.967 18.0552 20.2684 18.2973 20.2684C24.5837 21.6561 26.7002 23.1049 27.0629 23.4072C26.9423 23.7087 26.882 24.0102 26.882 24.3116C26.882 25.639 27.9699 26.6657 29.2396 26.6657C29.3602 26.6657 29.5411 26.6657 29.6626 26.6046C29.8443 27.571 30.5093 28.2945 31.4155 28.6572C31.7179 28.7778 31.9599 28.8381 32.2623 28.8381C32.4432 28.8381 32.6249 28.8381 32.8058 28.7778C32.9876 29.1998 33.4105 29.8036 34.2573 30.1654C34.5587 30.286 34.862 30.3463 35.1643 30.3463C35.4055 30.3463 35.6476 30.286 35.8896 30.2257C36.3126 31.2516 37.3402 31.976 38.4893 31.976C39.2397 31.9683 39.9567 31.6646 40.4843 31.131C40.9073 31.373 41.8746 31.8554 42.842 31.8554H43.2046C44.1711 31.7348 44.5949 31.373 44.7767 31.0707C44.837 31.0104 44.837 30.9501 44.8973 30.8898C45.1393 30.9501 45.3805 31.0104 45.6226 31.0104C46.167 31.0104 46.6511 30.8295 47.1343 30.4669C47.6176 30.1051 47.9802 29.6228 48.0405 29.1395C48.2223 29.1998 48.404 29.1998 48.5246 29.1998C49.0682 29.1998 49.6126 29.0189 50.0967 28.7175C51.0632 28.0534 51.2449 27.2687 51.2449 26.726C51.4267 26.7863 51.6085 26.7863 51.7893 26.7863C52.2726 26.7863 52.7558 26.6046 53.2399 26.3634C53.5286 26.1931 53.7725 25.9564 53.9514 25.673C54.1302 25.3895 54.2389 25.0675 54.2685 24.7337C54.3279 24.2513 54.2064 23.8293 53.9652 23.4063C55.5976 22.6819 59.2852 21.3546 63.6982 20.389C63.6982 20.0273 63.6379 19.7249 63.5776 19.3631C58.3179 20.3287 54.3882 22.0187 53.3605 22.4408ZM38.5496 31.0104C38.0566 31.014 37.5809 30.8281 37.2209 30.4912C36.8609 30.1543 36.644 29.692 36.6149 29.1998C36.6149 29.1395 36.6149 28.8984 36.4332 28.8984C36.3729 28.8984 36.3126 28.9587 36.192 29.0189C35.9499 29.1998 35.6476 29.441 35.2849 29.441C35.1032 29.441 34.862 29.3807 34.6802 29.3204C33.5923 28.8984 33.5923 28.1145 33.6526 27.8122C33.6526 27.7519 33.6526 27.6313 33.5923 27.5701L33.532 27.5098H33.4708C33.4105 27.5098 33.3502 27.5098 33.2899 27.571C32.9264 27.8122 32.6249 27.9328 32.3235 27.9328C32.1408 27.9328 31.9599 27.8725 31.7782 27.8122C30.3276 27.2687 30.4482 25.881 30.5093 25.5184C30.5093 25.4581 30.5093 25.3978 30.4482 25.3375L30.3276 25.2772L30.207 25.3978C29.9046 25.6399 29.542 25.8207 29.1784 25.8207C28.9796 25.8228 28.7824 25.7851 28.5983 25.71C28.4142 25.6349 28.2469 25.5238 28.1062 25.3833C27.9656 25.2428 27.8543 25.0757 27.779 24.8916C27.7037 24.7076 27.6658 24.5105 27.6676 24.3116C27.6676 23.4666 28.3326 22.8025 29.1793 22.8025C29.9046 22.8025 30.5696 23.3461 30.6299 24.0705L30.6902 24.4925L30.9323 24.1308C30.9323 24.0705 31.537 23.1643 32.6852 23.1643C32.867 23.1643 33.1082 23.2255 33.3502 23.2858C34.2573 23.5269 34.3787 24.3719 34.3787 24.6743C34.3787 24.8552 34.5596 24.8552 34.5596 24.8552C34.6199 24.8552 34.6802 24.7949 34.7405 24.7949C34.9223 24.6131 35.2849 24.3116 35.8293 24.3116C36.0705 24.3116 36.3729 24.3719 36.6752 24.4925C38.0655 25.0954 37.4608 26.8466 37.4608 26.9069C37.3402 27.2084 37.3402 27.329 37.4608 27.3893H37.5823C37.6426 27.3893 37.7029 27.3893 37.8243 27.329C38.0052 27.2687 38.3076 27.1481 38.5496 27.1481C39.5773 27.1481 40.4843 27.9931 40.4843 29.0792C40.4874 29.334 40.4395 29.5868 40.3433 29.8227C40.2471 30.0587 40.1047 30.273 39.9244 30.453C39.744 30.6329 39.5295 30.775 39.2934 30.8707C39.0573 30.9665 38.8044 31.014 38.5496 31.0104ZM147.67 10.7935C146.763 9.70734 145.433 9.16382 143.68 9.16382C141.867 9.16382 140.537 9.70734 139.69 10.7935C138.783 11.8797 138.36 13.2079 138.36 14.7161C138.36 16.2252 138.783 17.5535 139.69 18.6387C140.597 19.7249 141.927 20.2684 143.68 20.2684C145.493 20.2684 146.823 19.7249 147.67 18.6387C148.577 17.5526 149 16.2252 149 14.7161C149 13.1467 148.577 11.8797 147.67 10.7935ZM145.493 17.0702C145.07 17.6129 144.466 17.9143 143.68 17.9143C142.894 17.9143 142.29 17.6129 141.867 17.0702C141.443 16.5267 141.202 15.6817 141.202 14.6558C141.202 13.63 141.443 12.785 141.867 12.2423C142.29 11.6988 142.894 11.3973 143.68 11.3973C144.466 11.3973 145.07 11.6988 145.493 12.2423C145.917 12.785 146.158 13.63 146.158 14.6558C146.158 15.6817 145.917 16.5267 145.493 17.0702ZM125.242 9.82793C124.275 9.38221 123.222 9.15544 122.158 9.16382C120.405 9.16382 119.135 9.64705 118.41 10.5523C117.927 11.1553 117.685 11.8797 117.624 12.785H120.284C120.345 12.3629 120.465 12.0606 120.647 11.8194C120.888 11.5179 121.372 11.337 122.037 11.337C122.642 11.337 123.065 11.3973 123.367 11.5782C123.67 11.7591 123.79 12.0606 123.79 12.4826C123.79 12.8461 123.609 13.0864 123.186 13.2682C122.944 13.3888 122.582 13.4491 122.098 13.5094L121.191 13.63C120.103 13.7505 119.317 13.9917 118.773 14.2941C117.745 14.897 117.262 15.8023 117.262 17.0693C117.262 18.0358 117.563 18.8196 118.168 19.3631C118.773 19.9058 119.558 20.1478 120.526 20.1478C126.511 20.389 126.45 17.009 126.45 16.2855V12.3629C126.572 11.1553 126.088 10.3112 125.242 9.82793ZM123.851 15.8023C123.851 16.7076 123.548 17.3717 123.065 17.6732C122.596 18.0305 122.022 18.2217 121.433 18.2167C121.07 18.2167 120.707 18.0961 120.465 17.9152C120.223 17.7335 120.042 17.3717 120.042 16.8885C120.042 16.3458 120.284 15.9841 120.707 15.742C120.949 15.6214 121.372 15.5008 121.977 15.3802L122.582 15.2597C122.883 15.1994 123.125 15.1391 123.307 15.0788C123.488 15.0176 123.67 14.897 123.851 14.8367V15.8032V15.8023ZM111.639 11.517C112.304 11.517 112.848 11.7591 113.15 12.1209C113.392 12.4223 113.513 12.7859 113.573 13.1467H116.536C116.355 11.6385 115.871 10.6126 114.964 10.07C114.057 9.46617 112.969 9.16382 111.578 9.16382C109.947 9.16382 108.677 9.64705 107.77 10.6729C106.863 11.6385 106.38 13.0261 106.38 14.8367C106.38 16.4061 106.803 17.674 107.649 18.699C108.495 19.6655 109.765 20.2081 111.578 20.2081C113.332 20.2081 114.662 19.6052 115.568 18.3976C116.113 17.6732 116.475 16.8885 116.536 16.0444H113.634C113.573 16.587 113.392 17.009 113.09 17.3717C112.788 17.7335 112.304 17.9143 111.639 17.9143C110.672 17.9143 110.067 17.4923 109.705 16.587C109.523 16.1046 109.402 15.5008 109.402 14.7764C109.402 13.9917 109.523 13.3285 109.705 12.8453C110.007 11.9409 110.672 11.517 111.639 11.517ZM105.533 9.22411C99.4876 9.22411 99.8502 14.5352 99.8502 14.5352V19.967H102.571V14.897C102.571 14.052 102.692 13.4491 102.873 13.0261C103.236 12.3026 103.961 11.94 105.11 11.94H105.412C105.533 11.94 105.715 11.94 105.896 12.0003V9.225L105.533 9.22411ZM95.4985 17.1296C95.377 17.3114 95.2555 17.4311 95.1349 17.5526C94.7714 17.854 94.2279 17.9746 93.6232 17.9746C93.0193 17.9746 92.5955 17.9143 92.1726 17.6129C91.5076 17.1908 91.0846 16.4664 91.0846 15.4405H98.6408C98.6408 14.5352 98.6408 13.8711 98.5202 13.3888C98.3996 12.6041 98.0973 11.8797 97.6743 11.2165C97.1902 10.492 96.5855 10.0088 95.8602 9.64705C95.0932 9.33076 94.272 9.16664 93.4423 9.16382C91.9305 9.16382 90.6617 9.64705 89.6943 10.6126C88.727 11.5782 88.2429 12.9658 88.2429 14.7764C88.2429 16.7076 88.7873 18.0961 89.8149 18.9411C90.9029 19.7852 92.1114 20.2081 93.5035 20.2081C95.1952 20.2081 96.4649 19.7249 97.4314 18.699C97.9155 18.1564 98.279 17.6129 98.3996 17.1296H95.4976H95.4985ZM91.8099 12.0614C92.1735 11.6394 92.717 11.4585 93.4414 11.4585C94.1064 11.4585 94.6508 11.6394 95.0746 12.0012C95.4976 12.3638 95.7396 12.9064 95.7999 13.6308H91.0846C91.2052 12.9667 91.4473 12.4241 91.8099 12.0614ZM87.1549 19.967H84.6758V13.6894C84.6758 13.0864 84.4949 11.7582 82.8626 11.7582C81.7746 11.7582 80.9882 12.5429 80.9882 13.6894V19.9661H78.5099V13.6894C78.5099 13.0864 78.329 11.7582 76.6958 11.7582C75.5476 11.7582 74.8223 12.5429 74.8223 13.6894V19.9661H72.2226V13.7514C72.2226 11.1553 73.9755 9.16382 76.6355 9.16382C77.9655 9.16382 79.0543 9.70734 79.7796 10.6126C80.5049 9.70734 81.5929 9.16382 82.8626 9.16382C85.5829 9.16382 87.2161 11.0347 87.2161 13.7505V19.9661L87.1549 19.967ZM137.513 5.90443C137.513 5.90443 134.733 5.60296 134.733 7.83648V10.7935C134.43 10.3112 134.007 9.94852 133.523 9.64705C133.04 9.34558 132.496 9.22411 131.831 9.22411C130.44 9.22411 129.352 9.70734 128.567 10.7332C127.72 11.7591 127.357 13.207 127.357 15.0176C127.357 16.587 127.78 17.7937 128.627 18.8196C129.473 19.7861 131.105 20.2081 132.557 20.2081C137.635 20.2081 137.574 15.8635 137.574 15.8635L137.513 5.90532V5.90443ZM134.249 17.0702C133.826 17.6129 133.282 17.9143 132.496 17.9143C131.71 17.9143 131.166 17.6129 130.743 17.0702C130.38 16.4664 130.198 15.6817 130.198 14.7161C130.198 13.8117 130.38 13.0864 130.743 12.4835C131.105 11.8806 131.71 11.5782 132.496 11.5782C133.04 11.5782 133.463 11.7591 133.887 12.0606C134.552 12.6041 134.853 13.5697 134.853 14.8367C134.853 15.8032 134.672 16.5267 134.249 17.0702ZM74.9429 37.3474C74.9429 37.7092 74.8223 38.0709 74.5199 38.313C74.2779 38.5542 73.9152 38.6747 73.5535 38.6747H72.2235V29.1998C72.2235 27.329 72.8264 26.1825 73.8549 25.3978C74.5802 24.8552 75.7293 24.3116 78.0258 24.3719C79.1749 24.4322 80.3232 24.9155 81.0493 25.8207C81.9555 26.9069 82.3182 28.174 82.3182 29.8036C82.3182 31.4936 81.8952 32.821 81.1096 33.8468C80.3232 34.8727 79.2955 35.3559 78.0258 35.3559C77.3608 35.3559 76.757 35.2354 76.2729 34.9933C75.7293 34.7521 75.3064 34.3301 75.004 33.7866V37.3474H74.9429ZM79.5376 29.9242C79.5376 28.8984 79.3558 28.1137 78.9329 27.571C78.5099 27.0275 77.9664 26.726 77.1799 26.726C76.4546 26.726 75.9102 27.0275 75.4864 27.571C75.1246 28.0534 74.9429 28.8984 74.9429 29.9242C74.9429 30.9501 75.1246 31.6745 75.5476 32.2172C75.9705 32.7607 76.5149 33.0621 77.3005 33.0621C78.0267 33.0621 78.5702 32.7607 78.9329 32.2172C79.2964 31.6142 79.5376 30.8898 79.5376 29.9242ZM100.455 34.511V33.8468C99.9708 34.5713 99.367 35.0536 98.5202 35.2354C97.7141 35.4162 96.8723 35.3529 96.1023 35.0536C95.3167 34.7521 94.6517 34.1492 94.047 33.3033C93.5026 32.4592 93.2002 31.3119 93.2002 29.9242C93.2002 28.2945 93.5637 26.9672 94.3493 25.9413C95.0746 24.9155 96.2832 24.4322 97.9758 24.4322C99.609 24.3719 100.576 24.7337 101.483 25.4581C102.511 26.2428 103.115 27.3893 103.115 29.2601V34.8727C103.115 36.6833 101.845 39.9418 97.9758 39.7006C95.5579 39.5197 94.2279 38.5542 93.4423 36.2604H96.3443C96.5252 36.623 96.8879 36.9254 97.3108 37.1053C97.7289 37.2874 98.1892 37.3503 98.6408 37.2871C99.1131 37.1518 99.5342 36.8786 99.8502 36.5024C100.214 35.9589 100.395 35.356 100.455 34.511ZM95.9808 29.9242C95.9808 31.7348 96.5252 32.7607 97.5529 32.9416C98.5814 33.1224 99.367 32.8813 99.9114 32.2172C100.153 31.9157 100.334 31.4936 100.455 30.8295C100.576 30.2118 100.576 29.5764 100.455 28.9587C100.334 28.3557 100.153 27.8122 99.7899 27.329C99.4264 26.8466 98.944 26.6046 98.279 26.6046C97.372 26.6046 96.7673 26.9672 96.4649 27.571C96.1014 28.3548 95.9808 29.0792 95.9808 29.9242ZM90.9029 25.0963C89.9366 24.6507 88.8839 24.4239 87.8199 24.4322C86.067 24.4322 84.7964 24.9155 84.072 25.8207C83.5879 26.4237 83.3458 27.1481 83.2855 28.0534H85.9455C86.0067 27.6313 86.1273 27.329 86.309 27.0878C86.6105 26.7863 87.0343 26.6046 87.6993 26.6046C88.3032 26.6046 88.727 26.6657 89.0293 26.8466C89.3308 27.0275 89.4523 27.329 89.4523 27.751C89.4523 28.1145 89.2705 28.3548 88.8476 28.5366C88.6055 28.6572 88.2429 28.7175 87.7596 28.7778L86.8526 28.8984C85.7646 29.0189 84.9781 29.2601 84.4346 29.5625C83.4061 30.1654 82.9229 31.0707 82.9229 32.3377C82.9229 33.3042 83.2252 34.088 83.8299 34.6315C84.4346 35.1742 85.2202 35.4162 86.1885 35.4162C92.1735 35.6574 92.052 32.2774 92.1114 31.5539V27.6313C92.2329 26.4237 91.8099 25.5184 90.9029 25.0954V25.0963ZM89.5126 31.0104C89.5126 31.9157 89.2111 32.5798 88.727 32.8813C88.2583 33.2386 87.684 33.4298 87.0946 33.4248C86.7311 33.4248 86.3693 33.3042 86.1273 33.1233C85.8852 32.9416 85.7043 32.5798 85.7043 32.0966C85.7043 31.5539 85.9455 31.1922 86.3693 30.9501C86.6105 30.8295 87.0343 30.6486 87.6382 30.5883L88.2429 30.4669C88.4883 30.4211 88.7308 30.3607 88.969 30.286C89.1499 30.2257 89.3308 30.1051 89.5126 30.0448V31.0113V31.0104ZM113.513 25.9413C112.607 24.8552 111.277 24.3116 109.523 24.3116C107.71 24.3116 106.38 24.8552 105.533 25.9413C104.627 27.0275 104.203 28.3548 104.203 29.8639C104.203 31.3722 104.627 32.7004 105.533 33.7866C106.44 34.8727 107.77 35.4162 109.523 35.4162C111.337 35.4162 112.667 34.8727 113.513 33.7866C114.42 32.7004 114.843 31.3722 114.843 29.8639C114.843 28.3548 114.42 27.0878 113.513 25.9413ZM111.337 32.2774C110.913 32.821 110.309 33.1224 109.523 33.1224C108.737 33.1224 108.133 32.821 107.71 32.2774C107.287 31.7348 107.045 30.8898 107.045 29.8639C107.045 28.8381 107.287 27.9931 107.71 27.4495C108.133 26.9069 108.737 26.6046 109.523 26.6046C110.309 26.6046 110.913 26.906 111.337 27.4495C111.76 27.9931 112.002 28.8381 112.002 29.8639C112.002 30.8898 111.76 31.6745 111.337 32.2774Z" fill="white"/>
</g>
</svg>
