<svg width="190" height="47" viewBox="0 0 190 47" fill="none" xmlns="http://www.w3.org/2000/svg">
<mask id="mask0_2262_11742" style="mask-type:luminance" maskUnits="userSpaceOnUse" x="0" y="0" width="190" height="47">
<path d="M189.692 0H0V47H189.692V0Z" fill="white"/>
</mask>
<g mask="url(#mask0_2262_11742)">
<path d="M83.4144 21.171C82.8828 19.8464 82.0323 18.8031 80.8628 18.0456C79.691 17.2881 78.2823 16.9071 76.6365 16.9071C75.8126 16.9071 75.0086 17.0356 74.2222 17.2925C73.4359 17.5494 72.7271 17.875 72.0914 18.2693C71.5199 18.6259 71.0481 18.9825 70.6694 19.3392L70.7535 18.8629C70.851 18.307 70.7336 17.8419 70.3991 17.4674C70.0646 17.0931 69.5928 16.9071 68.9815 16.9071C68.3702 16.9071 67.832 17.0954 67.3668 17.4674C66.9017 17.8419 66.6181 18.307 66.5207 18.8629L63.0431 38.5875C62.9412 39.1656 63.0586 39.6351 63.3931 39.9985C63.7276 40.3617 64.2015 40.5433 64.8129 40.5433C65.4242 40.5433 65.9625 40.355 66.4276 39.9829C66.8928 39.6086 67.1763 39.1434 67.2738 38.5875L68.3392 32.5494C68.5496 32.7776 68.7955 33.0034 69.0834 33.2294C69.6305 33.6569 70.2906 34.0091 71.0659 34.2882C71.8389 34.565 72.6961 34.7045 73.6375 34.7045C75.2366 34.7045 76.7429 34.3258 78.1583 33.5661C79.5737 32.8086 80.7808 31.7608 81.782 30.423C82.781 29.0873 83.4366 27.5435 83.7444 25.7892C84.0546 24.0372 83.9416 22.4978 83.4122 21.171H83.4144ZM78.5548 28.5291C77.9744 29.3532 77.2612 29.9999 76.4128 30.4695C75.5667 30.9391 74.6253 31.1761 73.5909 31.1761C72.5565 31.1761 71.6927 30.9413 70.9994 30.4695C70.3062 29.9999 69.8144 29.3532 69.5242 28.5291C69.234 27.7074 69.1787 26.7926 69.3559 25.787C69.5375 24.7615 69.9163 23.8466 70.4922 23.0449C71.068 22.243 71.7858 21.6073 72.6451 21.1377C73.5045 20.6682 74.4504 20.4334 75.4848 20.4334C76.5191 20.4334 77.3764 20.6682 78.0586 21.1377C78.7386 21.6073 79.2281 22.243 79.5205 23.0449C79.8151 23.8466 79.8705 24.7592 79.6888 25.787C79.5116 26.7926 79.1329 27.7052 78.5525 28.5291H78.5548Z" fill="white"/>
<path d="M105.485 17.4519C105.148 17.0887 104.676 16.907 104.065 16.907C103.454 16.907 102.916 17.0953 102.45 17.4674C101.985 17.8417 101.701 18.3069 101.604 18.8629L101.595 18.9094C101.418 18.7322 101.225 18.5572 101.002 18.3822C100.454 17.9547 99.7809 17.6026 98.9836 17.3235C98.1863 17.0465 97.283 16.907 96.2706 16.907C94.6958 16.907 93.1937 17.2858 91.7672 18.0455C90.3408 18.8053 89.1269 19.8529 88.1258 21.1886C87.1246 22.5242 86.4712 24.0703 86.1633 25.8223C85.8576 27.5545 85.9684 29.0873 86.4977 30.4229C87.0249 31.7586 87.8821 32.8063 89.065 33.566C90.2477 34.3257 91.6499 34.7045 93.2734 34.7045C94.1662 34.7045 95.0189 34.5716 95.8321 34.3036C96.6425 34.0378 97.3647 33.71 97.9976 33.3268C98.4671 33.0411 98.8709 32.7531 99.2118 32.4607C99.1254 33.0011 99.2409 33.4574 99.5687 33.8229C99.903 34.1972 100.374 34.3834 100.986 34.3834C101.597 34.3834 102.136 34.1972 102.601 33.8229C103.066 33.4486 103.347 32.9835 103.447 32.4275L105.839 18.865C105.941 18.2869 105.824 17.8174 105.49 17.4541L105.485 17.4519ZM97.2623 30.4694C96.4031 30.939 95.4574 31.1761 94.4226 31.1761C93.3886 31.1761 92.5602 30.9412 91.8669 30.4694C91.1737 29.9999 90.6819 29.3575 90.3895 28.5446C90.0971 27.7317 90.0395 26.8236 90.2167 25.8202C90.3984 24.7946 90.7771 23.8754 91.3553 23.0625C91.9334 22.2495 92.651 21.6095 93.5104 21.1377C94.37 20.6681 95.3043 20.4333 96.3148 20.4333C97.3243 20.4333 98.2126 20.6681 98.9066 21.1377C99.5997 21.6072 100.091 22.2495 100.384 23.0625C100.676 23.8754 100.731 24.7946 100.55 25.8202C100.373 26.8257 99.9941 27.7339 99.4156 28.5446C98.8371 29.3575 98.1197 29.9976 97.2604 30.4694H97.2623Z" fill="white"/>
<path d="M124.027 17.4674C123.693 17.0931 123.22 16.907 122.609 16.907C121.998 16.907 121.46 17.0953 120.995 17.4674C120.529 17.8418 120.245 18.3069 120.149 18.8629L118.7 27.0717C118.556 27.8846 118.281 28.5735 117.876 29.1405C117.47 29.7075 116.959 30.135 116.345 30.423C115.729 30.7109 115.012 30.8548 114.187 30.8548C112.989 30.8548 112.104 30.5713 111.535 30.0043C110.965 29.4373 110.801 28.4605 111.047 27.0694L112.495 18.8606C112.593 18.3047 112.475 17.8396 112.141 17.4652C111.807 17.0909 111.334 16.9048 110.723 16.9048C110.112 16.9048 109.574 17.0931 109.109 17.4652C108.643 17.8396 108.36 18.3047 108.263 18.8606L106.612 28.2235C106.402 29.4218 106.473 30.4828 106.825 31.413C107.177 32.3433 107.773 33.0699 108.61 33.5926C109.448 34.1154 110.487 34.3789 111.734 34.3789C112.792 34.3789 113.754 34.2615 114.617 34.0267C115.481 33.792 116.254 33.4442 116.934 32.9857C117.247 32.7752 117.539 32.536 117.818 32.2747L117.759 32.618C117.565 33.7078 117.231 34.5694 116.757 35.1985C116.281 35.8275 115.661 36.2772 114.896 36.5452C114.132 36.8132 113.209 36.9461 112.128 36.9461C111.328 36.9461 110.641 36.8331 110.07 36.6095C109.499 36.3857 109.034 36.2196 108.677 36.1133C108.19 35.9427 107.691 35.9693 107.182 36.193C106.672 36.4168 106.256 36.8398 105.935 37.46C105.687 37.9296 105.663 38.3726 105.86 38.7912C106.056 39.2076 106.484 39.5554 107.14 39.8322C107.642 40.0449 108.309 40.2066 109.135 40.3129C109.963 40.4193 110.752 40.4724 111.505 40.4724C113.198 40.4724 114.772 40.2155 116.225 39.7038C117.679 39.1899 118.915 38.3504 119.931 37.1875C120.948 36.0224 121.63 34.4564 121.976 32.4896L124.379 18.8629C124.477 18.3069 124.358 17.8418 124.024 17.4674H124.027Z" fill="white"/>
<path d="M151.113 17.4674C150.779 17.0931 150.342 16.907 149.802 16.907C148.721 16.907 147.966 17.3124 147.541 18.1252L142.134 27.3441L140.603 20.657C140.505 20.2716 140.34 19.9792 140.107 19.7755C139.872 19.5717 139.496 19.472 138.979 19.472C138.063 19.472 137.345 19.8684 136.831 20.6592L132.84 27.5235L130.685 18.1252C130.618 17.6978 130.427 17.3877 130.109 17.195C129.79 17.0023 129.407 16.907 128.961 16.907C128.303 16.907 127.75 17.1108 127.302 17.5162C126.855 17.9215 126.585 18.3822 126.494 18.8939C126.449 19.1508 126.451 19.3966 126.505 19.6314L129.573 32.8417C129.661 33.2692 129.902 33.5948 130.3 33.8208C130.696 34.0445 131.121 34.1242 131.58 34.0622C132.385 34.02 133.057 33.6125 133.593 32.8439L137.825 24.9563L139.449 32.8439C139.713 33.6125 140.24 34.02 141.033 34.0622C141.491 34.1264 141.953 34.0466 142.416 33.8208C142.878 33.597 143.231 33.2714 143.469 32.8417L151.196 19.6314C151.262 19.5251 151.315 19.4121 151.362 19.2948C151.406 19.1774 151.441 19.0445 151.468 18.8939C151.57 18.3158 151.452 17.8417 151.12 17.4674H151.113Z" fill="white"/>
<path d="M170.763 17.4519C170.426 17.0887 169.955 16.907 169.344 16.907C168.732 16.907 168.193 17.0953 167.728 17.4674C167.264 17.8417 166.98 18.3069 166.882 18.8629L166.874 18.9094C166.696 18.7322 166.504 18.5572 166.279 18.3822C165.733 17.9547 165.06 17.6026 164.262 17.3235C163.465 17.0465 162.559 16.907 161.548 16.907C159.974 16.907 158.472 17.2858 157.046 18.0455C155.619 18.8053 154.405 19.8529 153.404 21.1886C152.403 22.5242 151.749 24.0703 151.441 25.8223C151.136 27.5545 151.247 29.0873 151.776 30.4229C152.303 31.7586 153.161 32.8063 154.343 33.566C155.526 34.3257 156.928 34.7045 158.552 34.7045C159.444 34.7045 160.298 34.5716 161.11 34.3036C161.92 34.0378 162.642 33.71 163.276 33.3268C163.746 33.0411 164.149 32.7531 164.491 32.4607C164.404 33.0011 164.519 33.4574 164.846 33.8229C165.182 34.1972 165.653 34.3834 166.264 34.3834C166.876 34.3834 167.414 34.1972 167.879 33.8229C168.344 33.4486 168.625 32.9835 168.725 32.4275L171.118 18.865C171.219 18.2869 171.102 17.8174 170.767 17.4541L170.763 17.4519ZM162.541 30.4694C161.682 30.939 160.736 31.1761 159.701 31.1761C158.667 31.1761 157.838 30.9412 157.145 30.4694C156.452 29.9999 155.96 29.3575 155.668 28.5446C155.375 27.7317 155.318 26.8236 155.495 25.8202C155.676 24.7946 156.056 23.8754 156.633 23.0625C157.212 22.2495 157.929 21.6095 158.789 21.1377C159.648 20.6681 160.583 20.4333 161.593 20.4333C162.603 20.4333 163.491 20.6681 164.184 21.1377C164.877 21.6072 165.37 22.2495 165.662 23.0625C165.955 23.8754 166.01 24.7946 165.828 25.8202C165.651 26.8257 165.272 27.7339 164.694 28.5446C164.116 29.3575 163.398 29.9976 162.539 30.4694H162.541Z" fill="white"/>
<path d="M189.304 17.4674C188.97 17.0931 188.499 16.907 187.887 16.907C187.276 16.907 186.737 17.0953 186.272 17.4674C185.807 17.8418 185.524 18.3069 185.426 18.8629L183.978 27.0717C183.833 27.8846 183.559 28.5735 183.153 29.1405C182.748 29.7075 182.237 30.135 181.623 30.423C181.007 30.7109 180.289 30.8548 179.466 30.8548C178.267 30.8548 177.381 30.5713 176.812 30.0043C176.243 29.4373 176.078 28.4605 176.324 27.0694L177.773 18.8606C177.871 18.3047 177.754 17.8396 177.418 17.4652C177.084 17.0909 176.613 16.9048 176.001 16.9048C175.39 16.9048 174.852 17.0931 174.386 17.4652C173.921 17.8396 173.638 18.3047 173.54 18.8606L171.89 28.2235C171.68 29.4218 171.75 30.4828 172.102 31.413C172.456 32.3433 173.051 33.0699 173.889 33.5926C174.725 34.1154 175.764 34.3789 177.011 34.3789C178.07 34.3789 179.032 34.2615 179.895 34.0267C180.759 33.792 181.533 33.4442 182.212 32.9857C182.524 32.7752 182.817 32.536 183.096 32.2747L183.036 32.618C182.844 33.7078 182.509 34.5694 182.035 35.1985C181.559 35.8275 180.938 36.2772 180.175 36.5452C179.41 36.8132 178.486 36.9461 177.405 36.9461C176.606 36.9461 175.92 36.8331 175.348 36.6095C174.776 36.3857 174.311 36.2196 173.954 36.1133C173.467 35.9427 172.969 35.9693 172.459 36.193C171.95 36.4168 171.533 36.8398 171.212 37.46C170.964 37.9296 170.94 38.3726 171.137 38.7912C171.334 39.2076 171.762 39.5554 172.417 39.8322C172.92 40.0449 173.587 40.2066 174.413 40.3129C175.242 40.4193 176.03 40.4724 176.783 40.4724C178.475 40.4724 180.051 40.2155 181.503 39.7038C182.956 39.1899 184.192 38.3504 185.209 37.1875C186.226 36.0224 186.908 34.4564 187.253 32.4896L189.656 18.8629C189.754 18.3069 189.637 17.8418 189.302 17.4674H189.304Z" fill="white"/>
<path d="M13.1305 11.0106L2.56497 0.442867C2.26816 0.146058 1.90711 0.00872807 1.5505 -0.000131915C0.764173 -0.0200669 0 0.584627 0 1.50385V22.6393C0 23.5586 0.764173 24.1632 1.54828 24.1433C1.90489 24.1344 2.26816 23.9971 2.56275 23.7003L13.1305 13.1348C13.7175 12.5478 13.7175 11.5975 13.1305 11.0106ZM12.1316 12.5301L2.23715 22.4267C1.82959 22.8343 1.13186 22.5463 1.13186 21.9682V2.17499C1.13186 1.5991 1.82959 1.30893 2.23715 1.71649L12.1337 11.6153C12.3862 11.8678 12.3862 12.2776 12.1337 12.5301H12.1316Z" fill="white"/>
<path d="M48.7276 12.0894C48.7276 10.7516 47.1107 10.0804 46.1627 11.0284L36.4034 20.7921L25.1446 9.53547C24.5576 8.94854 23.6073 8.94854 23.0226 9.53547L0.440719 32.1041C-0.146255 32.6911 -0.146255 33.6413 0.440719 34.2283L6.31488 40.1025C6.90186 40.6894 7.85209 40.6894 8.43907 40.1025L23.0226 25.5145C23.6096 24.9275 24.5598 24.9275 25.1467 25.5145L46.1937 46.5614C47.1306 47.4983 48.7342 46.8338 48.7342 45.5093V12.0894H48.7276ZM46.4882 12.3021C46.8958 11.8945 47.5935 12.1824 47.5935 12.7605V31.9845L37.2007 21.5917L46.4882 12.3042V12.3021ZM25.9419 24.7126C25.4436 24.2143 24.7835 23.9418 24.0791 23.9418C23.3748 23.9418 22.7147 24.2165 22.2164 24.7126L7.83216 39.1035C7.57965 39.356 7.16988 39.356 6.91736 39.1035L1.43746 33.6236C1.18496 33.371 1.18496 32.9613 1.43746 32.7088L23.6251 10.5323C23.8776 10.2798 24.2874 10.2798 24.5398 10.5323L35.6015 21.594L29.2157 27.9842L25.9442 24.7126H25.9419ZM46.4905 45.2612L30.0131 28.7838L36.399 22.3913L47.5935 33.5859V44.8026C47.5958 45.3786 46.8981 45.6687 46.4905 45.2612Z" fill="white"/>
</g>
</svg>
