<svg width="146" height="33" viewBox="0 0 146 33" fill="none" xmlns="http://www.w3.org/2000/svg">
<g clip-path="url(#clip0_2262_11774)">
<path d="M86.2369 8.70888C85.0063 8.70888 84.0597 9.6555 84.0597 10.9808C84.0597 12.022 84.7223 12.59 85.7636 12.59C86.9942 12.59 87.9408 11.6434 87.9408 10.3181C87.9408 9.37152 87.3728 8.70888 86.2369 8.70888ZM82.3557 9.27685C82.3557 9.18219 82.2611 9.18219 82.1664 9.18219H79.4212C79.3266 9.18219 79.2319 9.27685 79.1372 9.37152C79.1372 9.37152 78.096 14.6726 78.0013 14.9566C77.3387 13.726 75.9187 12.9687 74.3095 12.9687C70.9963 12.9687 68.5351 15.6192 68.5351 19.311C68.5351 22.3402 70.3337 24.4227 73.0789 24.4227C74.4041 24.4227 75.5401 23.8548 76.392 22.9081C76.2974 23.1921 76.2974 23.4761 76.2027 23.7601C76.2027 23.8548 76.2027 23.9494 76.2974 23.9494C76.2974 24.0441 76.3921 24.0441 76.4867 24.0441H79.2319C79.3266 24.0441 79.4212 23.9494 79.5159 23.8548L82.4504 9.37152L82.3557 9.27685ZM77.0547 18.743C76.96 19.1217 76.8654 19.5003 76.676 19.7843C76.4867 20.0683 76.2974 20.4469 76.0134 20.6363C75.7294 20.9203 75.4454 21.1096 75.1614 21.2042C74.5935 21.4882 73.8362 21.4882 73.2682 21.2042C72.9842 21.1096 72.7949 20.9203 72.6056 20.7309C72.4162 20.5416 72.3216 20.2576 72.2269 19.9736C72.1323 19.6896 72.1323 19.4057 72.1323 19.027C72.1323 18.6484 72.2269 18.1751 72.4163 17.7964C72.6056 17.4178 72.7949 17.0391 73.0789 16.7551C73.3629 16.4711 73.6469 16.2818 74.0255 16.0925C74.4041 15.9032 74.7828 15.8085 75.1614 15.8085C75.5401 15.8085 75.8241 15.9032 76.1081 15.9978C76.392 16.0925 76.5814 16.2818 76.7707 16.5658C76.96 16.7551 77.0547 17.0391 77.1493 17.4178C77.1493 17.9857 77.1493 18.3644 77.0547 18.743ZM86.7102 14.1993H83.8703C83.7757 14.1993 83.681 14.2939 83.5863 14.3886L81.6931 23.8548C81.6931 23.9494 81.6931 23.9494 81.7878 24.0441C81.8824 24.1388 81.8824 24.1388 81.9771 24.1388H84.8169C84.9116 24.1388 85.0063 24.0441 85.1009 23.9494L86.9942 14.4833C86.9942 14.3886 86.9942 14.3886 86.8995 14.2939C86.8048 14.2939 86.7102 14.1993 86.7102 14.1993ZM45.4376 23.2868C45.7216 21.9615 46.2896 19.1217 46.2896 19.1217H49.6028C53.3892 19.1217 55.8504 17.0391 55.8504 13.8206C55.8504 10.9808 53.8625 9.18219 50.5494 9.18219H44.8697C44.775 9.18219 44.6804 9.27685 44.5857 9.37152L41.7458 23.7601C41.7458 23.8548 41.7458 23.9494 41.8405 23.9494C41.8405 24.0441 41.9352 24.0441 42.0298 24.0441H44.5857C44.491 24.1388 45.2483 24.1388 45.4376 23.2868ZM49.6974 15.9978H46.8576C46.8576 15.9032 47.6149 12.4007 47.6149 12.2114H50.2654C51.496 12.2114 52.2533 12.7793 52.2533 13.8206C52.1586 15.2405 51.3067 15.9978 49.6974 15.9978ZM107.725 13.0633C104.033 13.0633 101.288 15.7139 101.288 19.4057C101.288 22.5295 103.465 24.5174 106.778 24.5174C110.47 24.5174 113.215 21.8669 113.215 18.1751C113.121 15.0512 111.038 13.0633 107.725 13.0633ZM106.968 21.2989C105.548 21.2989 104.696 20.5416 104.696 19.2163C104.696 17.5124 105.832 16.3765 107.441 16.3765C108.861 16.3765 109.713 17.1338 109.713 18.459C109.713 20.0683 108.577 21.2989 106.968 21.2989ZM101.667 9.27685C101.667 9.18219 101.572 9.18219 101.477 9.18219H98.7322C98.6376 9.18219 98.5429 9.27685 98.4482 9.37152C98.4482 9.37152 97.407 14.6726 97.3123 14.9566C96.6497 13.726 95.2297 12.9687 93.6205 12.9687C90.3073 12.9687 87.8461 15.6192 87.8461 19.311C87.8461 22.3402 89.6447 24.4227 92.3899 24.4227C93.7151 24.4227 94.8511 23.8548 95.703 22.9081C95.6084 23.1921 95.6084 23.4761 95.5137 23.7601C95.5137 23.8548 95.5137 23.9494 95.6084 23.9494C95.6084 24.0441 95.703 24.0441 95.7977 24.0441H98.5429C98.6376 24.0441 98.7322 23.9494 98.8269 23.8548L101.761 9.37152C101.761 9.37152 101.667 9.37151 101.667 9.27685ZM96.4603 18.743C96.3657 19.1217 96.271 19.5003 96.0817 19.7843C95.8924 20.0683 95.703 20.4469 95.4191 20.6363C95.1351 20.9203 94.8511 21.1096 94.5671 21.2042C93.9991 21.4882 93.2418 21.4882 92.6739 21.2042C92.3899 21.1096 92.2006 20.9203 92.0112 20.7309C91.8219 20.5416 91.7273 20.2576 91.6326 19.9736C91.5379 19.6896 91.5379 19.4057 91.5379 19.027C91.5379 18.6484 91.6326 18.1751 91.8219 17.7964C92.0112 17.4178 92.2006 17.0391 92.4845 16.7551C92.7685 16.4711 93.0525 16.2818 93.4312 16.0925C93.8098 15.9032 94.1885 15.8085 94.5671 15.8085C94.9458 15.8085 95.2297 15.9032 95.5137 15.9978C95.7977 16.0925 95.987 16.2818 96.1764 16.5658C96.3657 16.7551 96.4603 17.0391 96.555 17.4178C96.4603 17.9857 96.4603 18.3644 96.4603 18.743ZM122.208 13.9153C120.788 13.2526 119.274 12.9687 117.949 13.0633C115.582 13.2526 114.257 14.6726 114.446 16.7551C114.541 17.9857 115.298 18.9324 116.623 19.6896L118.138 20.4469C118.706 20.7309 118.801 20.9203 118.801 21.1096C118.801 21.5829 118.327 21.6775 118.043 21.6775C117.097 21.7722 115.961 21.3936 114.73 20.6363H114.541C114.446 20.6363 114.446 20.7309 114.351 20.7309L113.121 22.8135C113.026 22.9081 113.121 23.0975 113.215 23.0975C114.73 24.1388 116.434 24.6121 118.138 24.4227C120.788 24.2334 122.114 22.8135 121.924 20.6363C121.83 19.311 121.167 18.459 119.747 17.7017L118.422 17.0391C117.665 16.5658 117.57 16.4711 117.57 16.2818C117.57 16.1872 117.57 15.8085 118.327 15.7139C119.085 15.6192 120.031 15.9032 120.978 16.3765H121.167C121.262 16.3765 121.262 16.2818 121.262 16.2818L122.208 14.1046C122.398 14.1046 122.303 13.9153 122.208 13.9153ZM137.07 9.6555C137.07 9.56084 136.976 9.46618 136.881 9.46618H133C132.905 9.46618 132.81 9.46618 132.81 9.56084C132.81 9.56084 128.929 15.0512 128.645 15.5245C128.551 15.0512 126.657 9.6555 126.657 9.6555C126.657 9.56084 126.563 9.46618 126.373 9.46618H122.966C122.871 9.46618 122.776 9.46618 122.776 9.56084C122.682 9.6555 122.682 9.75016 122.776 9.84482L126.373 18.9324L125.332 24.2334C125.332 24.3281 125.332 24.4227 125.427 24.4227C125.521 24.5174 125.521 24.5174 125.616 24.5174H128.361C128.74 24.5174 129.024 24.2334 129.119 23.9494L130.065 19.027L137.165 9.84482C137.07 9.84482 137.07 9.75016 137.07 9.6555ZM145.306 13.726C145.306 13.6313 145.211 13.6313 145.116 13.6313H142.466C142.371 13.6313 142.277 13.726 142.277 13.8206C142.277 13.8206 142.182 14.2939 142.087 14.6726C141.519 13.9153 140.573 13.5366 139.626 13.442C138.774 13.3473 137.922 13.5366 137.165 13.8206C134.514 14.8619 132.81 17.4178 132.81 20.2576C132.81 22.7188 134.42 24.4227 136.881 24.5174C138.206 24.6121 139.342 24.1388 140.383 23.2868C140.289 23.5708 140.289 23.8548 140.194 24.1388C140.194 24.2334 140.194 24.2334 140.289 24.3281C140.289 24.4227 140.383 24.4227 140.478 24.4227H143.129C143.223 24.4227 143.318 24.3281 143.318 24.2334L145.4 13.9153C145.306 13.9153 145.306 13.8206 145.306 13.726ZM141.141 19.027C141.046 19.4057 140.951 19.7843 140.762 20.0683C140.573 20.3523 140.383 20.6363 140.099 20.9203L139.247 21.4882C138.679 21.7722 137.922 21.7722 137.449 21.4882C137.165 21.3936 136.976 21.2042 136.786 21.0149C136.597 20.8256 136.502 20.6363 136.408 20.3523C136.313 20.0683 136.313 19.7843 136.313 19.4057C136.313 19.027 136.408 18.6484 136.597 18.2697C136.786 17.8911 136.976 17.6071 137.26 17.3231C137.544 17.0391 137.828 16.8498 138.112 16.6605C138.49 16.4711 138.774 16.4711 139.153 16.4711C139.437 16.4711 139.815 16.5658 140.005 16.6605C140.289 16.7551 140.478 16.9445 140.667 17.1338C140.857 17.3231 140.951 17.6071 141.046 17.9857C141.235 18.2697 141.235 18.6484 141.141 19.027ZM62.3821 13.0633C58.6903 13.0633 56.0398 15.7139 56.0398 19.4057C56.0398 22.5295 58.217 24.5174 61.6248 24.5174C63.1394 24.5174 64.4647 24.1388 65.7899 23.1921C65.8846 23.0975 65.8846 22.9081 65.7899 22.8135L64.086 21.1096C63.9914 21.0149 63.8967 21.0149 63.802 21.1096C63.0447 21.4882 62.3821 21.6775 61.6248 21.6775C60.0156 21.6775 59.1636 20.9203 59.1636 19.6896H66.8312C66.9259 19.6896 67.0205 19.595 67.1152 19.5003C67.3045 18.743 67.3992 18.1751 67.3992 17.5124C67.3045 14.7672 65.4113 13.0633 62.3821 13.0633ZM59.5423 17.3231C60.0156 16.0925 60.9622 15.5245 62.2874 15.5245C63.7074 15.5245 64.37 16.1872 64.37 17.4178C64.1807 17.3231 59.7316 17.3231 59.5423 17.3231ZM22.6242 0H0.567971C0.189324 0 0 0.189323 0 0.567971V3.69181C0 7.19429 2.46121 9.08753 6.91031 9.08753H22.7188C24.4227 9.08753 25.748 10.4128 25.748 12.1167C25.748 13.8206 24.4227 15.1459 22.7188 15.1459H4.92241C4.63843 15.1459 4.4491 15.3352 4.35444 15.5245L0.283985 32.0903C0.283985 32.2797 0.283985 32.469 0.378647 32.5637C0.473309 32.6583 0.662632 32.753 0.851956 32.753H6.437C8.51956 32.753 9.56084 31.0491 9.75016 30.1024L11.3594 24.1388H22.6242C29.2505 24.1388 34.7409 18.743 34.7409 12.022C34.7409 5.39572 29.3451 0 22.6242 0Z" fill="white"/>
</g>
<defs>
<clipPath id="clip0_2262_11774">
<rect width="145.4" height="32.753" fill="white"/>
</clipPath>
</defs>
</svg>
