<svg width="86" height="37" viewBox="0 0 86 37" fill="none" xmlns="http://www.w3.org/2000/svg">
<g clip-path="url(#clip0_2262_11777)">
<path fill-rule="evenodd" clip-rule="evenodd" d="M66.823 14.2593C66.7057 14.8963 66.5204 15.6319 66.2716 16.4426C66.0217 17.2533 65.7015 18.1086 65.3237 18.9755C64.9131 19.8496 64.4872 20.6673 64.0602 21.4041C63.6378 22.1338 63.2155 22.7614 62.8107 23.2694C62.4154 23.7645 62.0481 24.1306 61.722 24.3582C61.4756 24.5295 61.3383 24.5482 61.2914 24.5482C61.2693 24.5482 61.2515 24.5447 61.2327 24.5363C61.1915 24.5176 61.0544 24.426 60.9946 23.9907C60.9383 23.5918 60.9689 23.0674 61.0826 22.4327C61.1999 21.7792 61.3841 21.0366 61.634 20.2306C61.8803 19.4246 62.2006 18.5694 62.5843 17.6907C62.9644 16.819 63.3797 16.0059 63.8208 15.2727C64.2596 14.5406 64.6866 13.92 65.0914 13.4273C65.4844 12.9462 65.8516 12.5861 66.1825 12.355C66.43 12.1837 66.5661 12.1649 66.613 12.1649C66.6367 12.1649 66.6543 12.1684 66.6705 12.1769C66.7117 12.1946 66.8488 12.2872 66.9098 12.7224C66.9649 13.1213 66.9355 13.6375 66.823 14.2593ZM50.3537 14.2593C50.2363 14.8963 50.051 15.6319 49.8023 16.4426C49.5512 17.258 49.2309 18.1121 48.8543 18.9755C48.4425 19.8519 48.0167 20.6696 47.5908 21.4041C47.1673 22.135 46.7461 22.7626 46.3413 23.2694C45.946 23.7645 45.5799 24.1306 45.2514 24.3582C45.0051 24.5295 44.869 24.5482 44.822 24.5482C44.7999 24.5482 44.7821 24.5447 44.7634 24.5367C44.7221 24.5181 44.5851 24.4264 44.5252 23.9911C44.4689 23.5934 44.4982 23.0702 44.6132 22.4331C44.7293 21.7808 44.9147 21.0406 45.1646 20.231C45.411 19.4239 45.7313 18.5698 46.1149 17.6911C46.4962 16.817 46.9127 16.004 47.3503 15.2731C47.7914 14.5399 48.2184 13.9192 48.622 13.4277C49.0162 12.9467 49.3846 12.5853 49.7131 12.3554C49.9594 12.1841 50.0967 12.1653 50.1436 12.1653C50.1674 12.1653 50.1849 12.1688 50.2011 12.1769C50.2423 12.1946 50.3806 12.2872 50.4405 12.7224C50.4956 13.1213 50.4662 13.6375 50.3537 14.2593ZM32.5094 14.0951C32.4366 14.7427 32.2959 15.4818 32.0905 16.2936C31.884 17.1031 31.6025 17.9549 31.2517 18.8277C30.9021 19.6959 30.5302 20.5124 30.1442 21.2539C29.7664 21.9789 29.3851 22.5972 29.0085 23.0923C28.6425 23.5733 28.2987 23.9323 27.9855 24.1587C27.7544 24.3265 27.6253 24.3453 27.5819 24.3453C27.562 24.3453 27.5442 24.3418 27.5256 24.3333C27.4835 24.3147 27.3379 24.2195 27.2628 23.7772C27.1924 23.3725 27.1865 22.8504 27.2428 22.2239C27.3015 21.588 27.4341 20.8571 27.6382 20.0523C27.8423 19.2463 28.1251 18.3934 28.477 17.5182C28.8313 16.6383 29.2044 15.823 29.5857 15.0909C29.9611 14.367 30.3436 13.7417 30.7225 13.2314C31.0862 12.7386 31.4311 12.3749 31.7432 12.1485C31.9743 11.9807 32.1034 11.962 32.1479 11.962C32.1679 11.962 32.1856 11.9655 32.2019 11.9739C32.2465 11.9925 32.3978 12.0912 32.4905 12.5394C32.5726 12.9383 32.5795 13.4604 32.5094 14.0951ZM68.5922 8.71478C69.4545 8.71478 70.196 8.97875 70.7967 9.50082C71.3762 10.0041 71.7904 10.7233 72.0262 11.6372C72.2549 12.523 72.3019 13.5941 72.167 14.8224C72.032 16.0355 71.6777 17.4199 71.1111 18.9368C70.5773 20.3705 69.9649 21.6317 69.2938 22.684C68.9688 23.1955 68.6345 23.6742 68.2954 24.1165C68.252 24.1728 68.3169 24.2467 68.3787 24.2127C68.5758 24.1059 68.7717 23.9898 68.9653 23.8631C69.4064 23.578 69.8299 23.2706 70.2323 22.9456C71.3551 22.0364 72.1705 20.8069 72.567 19.4249C72.804 18.5931 73.0668 17.7683 73.353 16.9553C73.8223 15.6167 74.3233 14.3672 74.843 13.241C75.3592 12.1182 75.7886 11.2782 76.1194 10.7421C76.4949 10.132 77.0204 9.75189 77.6857 9.6111C78.3074 9.47972 78.9023 9.48908 79.449 9.63681C80.0086 9.78935 80.4661 10.0662 80.8075 10.4627C81.1794 10.8956 81.2604 11.3884 81.0398 11.8882C80.9741 12.0606 80.8017 12.4548 80.5271 13.0614C80.2514 13.6714 79.9417 14.3836 79.5816 15.2423C79.2355 16.0671 78.88 16.9599 78.5257 17.8938C78.1796 18.8112 77.9086 19.6676 77.7209 20.4396C77.5379 21.1904 77.4663 21.8146 77.5073 22.2944C77.5473 22.7531 77.7221 22.7531 77.8171 22.7531C77.9508 22.7531 78.1878 22.6898 78.5562 22.3895C78.9105 22.0961 79.2847 21.743 79.6707 21.3348C80.0567 20.9253 80.4274 20.4842 80.77 20.0243C81.0832 19.6054 81.3519 19.2347 81.5701 18.9215C81.7602 18.6481 82.0629 18.4921 82.3996 18.4921C82.7551 18.4921 83.1 18.6704 83.2795 18.9461C83.4543 19.2159 83.4496 19.5374 83.2642 19.826C83.0319 20.1885 82.626 20.7962 82.0229 21.6867C81.4258 22.5666 80.7113 23.4735 79.8995 24.3839C79.0735 25.3072 78.1713 26.1272 77.2152 26.8206C76.2098 27.5515 75.1938 27.9211 74.1977 27.9211C73.2967 27.9211 72.6245 27.609 72.1986 26.9919C71.8115 26.4288 71.6144 25.6732 71.6144 24.7464V24.5986C71.6168 24.4883 71.4877 24.4261 71.4021 24.4953C71.2132 24.6467 71.0184 24.7969 70.8202 24.9447C69.6492 25.8164 68.2976 26.5555 66.8006 27.1432C65.4644 27.6688 63.992 27.9352 62.4246 27.9352L62.1055 27.9316L61.7852 27.921C60.7176 27.9186 59.9257 27.5843 59.4295 26.9238C59.3415 26.8076 59.2605 26.688 59.189 26.5648C59.1315 26.4662 58.9825 26.4827 58.9496 26.5927C58.7889 27.1288 58.6364 27.6462 58.4956 28.1413C58.1906 29.2054 57.9301 30.1264 57.7014 30.957C57.4714 31.79 57.272 32.549 57.1077 33.2166C56.9493 33.8595 56.839 34.3804 56.7827 34.7664L56.7792 34.7807C56.6349 35.5116 56.1409 35.7685 55.7503 35.8565C55.5766 35.8951 55.396 35.9151 55.2129 35.9151C54.8821 35.9151 54.5325 35.8506 54.1747 35.7251C53.6303 35.5327 53.1411 35.2007 52.7187 34.7373C52.2811 34.2563 52.0594 33.6544 52.0594 32.9481C52.0594 32.805 52.0958 32.4918 52.3762 31.3385C52.5862 30.488 52.8689 29.4297 53.2197 28.192C53.4567 27.3532 53.7265 26.4404 54.0257 25.4643C54.0607 25.347 53.9272 25.2496 53.8263 25.3188C52.7833 26.0286 51.6136 26.6422 50.3372 27.1432C48.9997 27.6688 47.5285 27.9351 45.9612 27.9351C45.7499 27.9351 45.5341 27.9302 45.3206 27.9209C44.2542 27.9185 43.4623 27.5841 42.9648 26.9237C42.8768 26.8075 42.797 26.689 42.7255 26.5647C42.6669 26.4661 42.519 26.4837 42.4862 26.5926C42.3243 27.1299 42.1717 27.6485 42.031 28.1412C41.7247 29.2088 41.4643 30.131 41.2379 30.9569C41.0079 31.7899 40.8073 32.5489 40.6431 33.2165C40.4847 33.8605 40.3756 34.3814 40.3181 34.7663L40.3158 34.7806C40.1715 35.5114 39.6764 35.7684 39.2857 35.8564C39.1121 35.8949 38.9326 35.915 38.7495 35.915C38.4187 35.915 38.0691 35.8505 37.7101 35.725C37.1657 35.5326 36.6777 35.2006 36.2553 34.7371C35.8177 34.2561 35.596 33.6543 35.596 32.948C35.596 32.8037 35.631 32.4905 35.9128 31.3384C36.124 30.4796 36.4067 29.4214 36.7551 28.1919C36.9616 27.461 37.1904 26.682 37.4473 25.8408C37.485 25.7141 37.33 25.6179 37.2315 25.7082C36.7938 26.1071 36.3433 26.479 35.8811 26.8192C34.8898 27.5501 33.8808 27.9209 32.8836 27.9209C31.9826 27.9209 31.3092 27.6088 30.8845 26.9917C30.7132 26.7428 30.5795 26.4554 30.4821 26.1328C30.3965 25.8453 30.0281 25.7573 29.8193 25.9744C29.526 26.2794 29.2033 26.5574 28.8573 26.8026C28.4067 27.1218 27.9035 27.3892 27.3591 27.5981C26.7983 27.8116 26.1918 27.9207 25.5559 27.9207C24.6959 27.9207 23.9416 27.6591 23.3151 27.1417C22.705 26.6419 22.2533 25.9333 21.9706 25.0335C21.6961 24.1618 21.5952 23.0907 21.6703 21.8482C21.7453 20.6211 22.0246 19.2437 22.5009 17.7526C23.5157 14.6601 24.8391 12.3641 26.4358 10.9246C28.0618 9.45812 29.7114 8.71431 31.3386 8.71431C32.0272 8.71431 32.6103 8.85275 33.069 9.12491C33.5207 9.39473 33.8692 9.7514 34.105 10.1855C34.2622 10.4776 34.3772 10.7909 34.4476 11.124C34.4602 11.1827 34.5402 11.1944 34.5696 11.1418C34.6517 10.994 34.7303 10.8614 34.8042 10.7405C35.1797 10.1328 35.6982 9.75271 36.347 9.61075C36.9535 9.47937 37.5472 9.48757 38.1091 9.63559C38.6852 9.78812 39.1509 10.0661 39.4935 10.4627C39.8654 10.8956 39.9463 11.3883 39.7246 11.8881C39.6601 12.0582 39.4935 12.443 39.2131 13.0613C38.9397 13.6667 38.6206 14.3999 38.2675 15.2423C37.9178 16.0764 37.5624 16.9692 37.2116 17.8937C36.8643 18.8111 36.5933 19.6687 36.4068 20.4395C36.2238 21.1915 36.1522 21.8157 36.1933 22.2944C36.2332 22.7531 36.408 22.7531 36.5019 22.7531C36.6369 22.7531 36.8738 22.6897 37.241 22.3894C37.444 22.2216 37.6552 22.0327 37.871 21.8251C38.7075 21.0191 39.2683 20.1392 39.6425 19.0446C40.14 17.5922 40.6632 16.1586 41.2005 14.7765C41.7742 13.3065 42.3338 11.9867 42.8641 10.8534C43.141 10.2668 43.5798 9.8714 44.164 9.68134C44.7119 9.50299 45.2739 9.46548 45.8264 9.56991C46.3778 9.67548 46.8612 9.89488 47.2624 10.2234C47.4408 10.3689 47.5827 10.5261 47.6883 10.6915C47.7162 10.736 47.7493 10.7407 47.788 10.7044C48.262 10.2668 48.7852 9.86552 49.3495 9.5077C50.1755 8.98093 51.1105 8.71462 52.1288 8.71462C52.99 8.71462 53.7326 8.97858 54.3321 9.50065C54.9128 10.0051 55.327 10.7231 55.5628 11.637C55.7915 12.5216 55.8385 13.5939 55.7035 14.8223C55.5686 16.0342 55.2132 17.4197 54.6477 18.9367C54.1127 20.3715 53.5003 21.6327 52.8292 22.6839C52.5042 23.1954 52.1699 23.674 51.8308 24.1163C51.7874 24.1726 51.8529 24.2466 51.9153 24.2126C52.1112 24.1058 52.3072 23.9897 52.5019 23.8629C52.8175 23.6588 53.1237 23.4429 53.4193 23.2177C54.5433 22.3636 55.3821 21.1951 55.8291 19.8647L56.0051 19.3449C56.533 17.7846 57.0915 16.2477 57.664 14.7765C58.2388 13.3042 58.7984 11.9843 59.3287 10.8534C59.6045 10.2668 60.042 9.87256 60.6286 9.68133C61.1765 9.50299 61.7385 9.46547 62.2911 9.5699C62.8425 9.67547 63.3246 9.89487 63.7259 10.2222C63.9042 10.3688 64.0461 10.5261 64.1517 10.6915C64.18 10.736 64.2127 10.7407 64.2514 10.7043C64.7254 10.2667 65.2487 9.86551 65.813 9.50769C66.64 8.98087 67.5751 8.71478 68.5922 8.71478ZM14.6323 1.40695C15.8688 1.40695 17.1077 1.55008 18.3161 1.83045C19.5327 2.11437 20.6367 2.54609 21.5952 3.11392C22.5654 3.68879 23.362 4.4103 23.9627 5.25852C24.5751 6.122 24.8848 7.13447 24.8848 8.26777C24.8848 9.4879 24.6127 10.6329 24.0753 11.67C23.5427 12.6966 22.8094 13.634 21.8979 14.4564C20.9945 15.2729 19.9234 15.9933 18.7138 16.5963C17.7166 17.0937 16.6572 17.5184 15.5567 17.8598C15.4863 17.882 15.4617 17.9185 15.4652 17.9889C15.4887 18.5285 15.5274 19.0623 15.5826 19.5762C15.6447 20.1663 15.7268 20.7412 15.8278 21.2867C15.9263 21.8229 16.046 22.3449 16.1809 22.8388C16.2865 23.2213 16.4038 23.5932 16.5293 23.9463C16.6091 24.1716 16.6936 24.3922 16.7792 24.5986C16.9517 25.0151 17.1418 25.414 17.3435 25.7836C17.5418 26.1473 17.7565 26.4922 17.9818 26.8089C18.2012 27.1175 18.437 27.4073 18.6822 27.6724C18.9215 27.9305 19.1749 28.1675 19.4354 28.3787C19.6888 28.584 19.9563 28.7705 20.2296 28.9301C20.4959 29.0873 20.7751 29.2234 21.0602 29.336C21.3406 29.4463 21.6304 29.5355 21.9225 29.6C22.2158 29.6645 22.5173 29.7056 22.8224 29.7255C23.1262 29.7441 23.443 29.7406 23.7586 29.7126C24.0801 29.6847 24.4085 29.6329 24.7347 29.5566C25.0691 29.4792 25.4093 29.3771 25.7483 29.2516C26.0956 29.1226 26.4464 28.9653 26.7925 28.7882C26.925 28.7201 27.0588 28.6474 27.1914 28.5723C27.6231 28.326 28.1745 28.4433 28.4643 28.8421C28.7553 29.241 28.6907 29.7924 28.3153 30.1162C28.1311 30.2746 27.9458 30.4295 27.7627 30.5773C27.3181 30.9363 26.8723 31.2695 26.437 31.5663C26.0241 31.8478 25.604 32.1107 25.1887 32.3441C24.9811 32.4615 24.7629 32.5764 24.5411 32.6867C24.1153 32.9002 23.6847 33.088 23.2588 33.2451C22.8353 33.4012 22.4094 33.5314 21.9941 33.6299C21.58 33.7285 21.1623 33.8 20.7552 33.8411C20.4643 33.8704 20.1733 33.8857 19.8894 33.8857C19.7744 33.8857 19.6594 33.8833 19.5445 33.8776C19.1503 33.861 18.7584 33.8154 18.3783 33.7415C18.1906 33.7051 18.0005 33.6605 17.8152 33.6089C17.6357 33.5608 17.4515 33.5033 17.2673 33.4364C16.9142 33.3098 16.5634 33.1538 16.2278 32.972C15.8994 32.7937 15.5755 32.5884 15.2682 32.3608C15.0195 32.1766 14.7754 31.9736 14.5443 31.7589C14.2662 31.5008 13.9952 31.2134 13.7383 30.9083C13.4849 30.6068 13.2421 30.2807 13.0168 29.9393C12.7904 29.5991 12.5768 29.2354 12.3798 28.8599C12.1838 28.4845 11.9973 28.0856 11.8284 27.675C11.6606 27.2679 11.5045 26.8362 11.3626 26.3892C11.223 25.9504 11.0951 25.4858 10.9825 25.0072C10.871 24.5297 10.7736 24.0346 10.6927 23.5348C10.62 23.0925 10.559 22.6338 10.5108 22.168C10.4967 22.0273 10.2938 22.0085 10.2527 22.1459C10.0767 22.7536 9.9172 23.3425 9.77641 23.9056C9.59927 24.6119 9.43618 25.2548 9.28836 25.832C9.14408 26.3975 9.042 26.8527 8.98334 27.1847C8.86601 27.7737 8.47534 28.1456 7.84886 28.2664C7.31036 28.372 6.73197 28.3274 6.13599 28.1374C5.54705 27.9485 5.01207 27.6212 4.54396 27.1625C4.05357 26.6815 3.80485 26.0773 3.80485 25.3651C3.80485 24.7856 3.95269 23.8693 4.25536 22.5659C4.55099 21.293 4.97688 19.7842 5.52358 18.0796C6.0656 16.389 6.72376 14.5248 7.47813 12.5421C8.12573 10.8386 8.85312 9.12341 9.6415 7.43165C9.89961 6.87791 10.4334 6.49662 11.0493 6.42623C12.4419 6.26669 13.6503 6.30655 14.6745 6.54356C15.2916 6.68669 15.6225 7.34719 15.3643 7.91619C14.7038 9.36861 14.095 10.8175 13.5506 12.2277C13.1106 13.3692 12.6883 14.499 12.2894 15.5983C12.2508 15.7074 12.3633 15.8083 12.4689 15.7602C13.0004 15.5197 13.5248 15.2358 14.0375 14.912C14.8775 14.3805 15.6424 13.7458 16.3123 13.0266C16.9787 12.3075 17.5254 11.4968 17.9372 10.6157C18.3431 9.74285 18.5496 8.7949 18.5496 7.79534C18.5496 6.5107 18.1882 5.56158 17.4761 4.97616C16.7546 4.38369 15.7386 4.08218 14.4551 4.08218C13.0883 4.08218 11.8389 4.4013 10.742 5.03129C9.61569 5.67655 8.64193 6.46963 7.84768 7.38942C7.04756 8.31624 6.41638 9.30642 5.97409 10.333C5.53533 11.3501 5.3124 12.2418 5.3124 12.9844C5.3124 13.5158 5.02733 13.8995 4.50994 14.0649C4.05591 14.2104 3.55496 14.1893 3.0411 14.0004C2.54718 13.8197 2.08964 13.4619 1.68019 12.9386C1.26839 12.413 1.05957 11.7009 1.05957 10.8222C1.05957 10.0549 1.35519 9.15157 1.96293 8.06049C2.55422 6.99641 3.42942 5.96047 4.56156 4.98086C5.69252 4.00358 7.11913 3.15536 8.80618 2.46083C10.5026 1.7616 12.463 1.40695 14.6323 1.40695ZM81.935 0.595093C83.8274 0.595093 85.3607 2.10852 85.3607 3.9739C85.3607 5.83928 83.8274 7.3527 81.935 7.3527C80.0426 7.3527 78.5093 5.83928 78.5093 3.9739C78.5093 2.10852 80.0426 0.595093 81.935 0.595093Z" fill="white"/>
</g>
<defs>
<clipPath id="clip0_2262_11777">
<rect width="86" height="36.12" fill="white"/>
</clipPath>
</defs>
</svg>
