<svg width="159" height="47" viewBox="0 0 159 47" fill="none" xmlns="http://www.w3.org/2000/svg">
<g clip-path="url(#clip0_2172_6517)">
<path d="M43.1333 0.370502H3.77973C2.00104 0.370502 0.518799 1.85293 0.518799 3.63184V42.7679C0.518799 44.5468 2.00104 46.0292 3.77973 46.0292H43.1333C44.912 46.0292 46.3942 44.5468 46.3942 42.7679V3.63184C46.3942 1.77881 44.912 0.370502 43.1333 0.370502ZM29.2743 34.6886C25.2723 38.6912 18.8986 38.8394 14.6742 35.2075L14.6001 35.1334C14.3778 34.911 14.3037 34.4663 14.6001 34.1698L28.8296 20.0126C29.1261 19.7903 29.4966 19.7903 29.7931 20.0126C33.4987 24.3117 33.3505 30.6861 29.2743 34.6886ZM32.2388 12.0817L18.0093 26.2388C17.7128 26.4612 17.3423 26.4612 17.0458 26.2388C13.3402 22.0139 13.4884 15.6395 17.4905 11.6369C21.4925 7.63439 27.8662 7.48614 32.0906 11.1181C32.0906 11.1181 32.1647 11.1181 32.1647 11.1922C32.5352 11.4146 32.5352 11.8593 32.2388 12.0817Z" fill="white"/>
<path fill-rule="evenodd" clip-rule="evenodd" d="M107.092 13.0451H107.018C105.239 13.0451 103.683 13.7863 102.571 14.8981C101.459 13.7863 99.829 13.0451 98.1244 13.0451H98.0503C94.6412 13.0451 91.8249 15.7876 91.8249 19.2713V31.353C91.899 32.3166 92.6401 33.0578 93.6036 33.0578C94.567 33.0578 95.3082 32.3166 95.3823 31.353V19.2713C95.3823 17.7888 96.5681 16.6029 98.0503 16.6029H98.1244C99.6067 16.6029 100.718 17.7147 100.792 19.1971V31.353C100.882 32.2291 101.499 33.0578 102.497 33.0578C103.46 33.0578 104.202 32.3166 104.276 31.353V19.123C104.35 17.7147 105.536 16.5288 106.944 16.5288H107.018C108.5 16.5288 109.686 17.7147 109.686 19.1971V31.353C109.76 32.3166 110.501 33.0578 111.465 33.0578C112.428 33.0578 113.169 32.3166 113.243 31.353V19.2713C113.317 15.8617 110.501 13.0451 107.092 13.0451ZM86.0441 13.0451C85.0807 13.0451 84.3396 13.7863 84.2654 14.7499V26.8316C84.2654 28.3141 83.0797 29.5 81.5233 29.5H81.4492C79.9669 29.5 78.707 28.3141 78.707 26.8316V14.6758C78.6329 13.7122 77.8918 12.971 76.9284 12.971C75.9649 12.971 75.2238 13.7122 75.1497 14.6758V26.7575C75.1497 30.1671 77.9659 32.9837 81.4492 32.9837H81.5233C85.0066 32.9837 87.8228 30.1671 87.8228 26.7575V14.7499C87.8228 13.7863 87.0076 13.0451 86.0441 13.0451ZM128.14 13.0451C127.176 13.0451 126.435 13.7863 126.361 14.7499V26.8316C126.361 28.3141 125.175 29.5 123.619 29.5H123.545C122.063 29.5 120.803 28.3141 120.803 26.8316V14.6758C120.729 13.7122 119.988 12.971 119.024 12.971C118.061 12.971 117.319 13.7122 117.245 14.6758V26.7575C117.245 30.1671 120.062 32.9837 123.545 32.9837H123.619C127.102 32.9837 129.919 30.1671 129.919 26.7575V14.7499C129.844 13.7863 129.103 13.0451 128.14 13.0451Z" fill="white"/>
<path d="M139.924 13.0454H139.849C136.292 13.0454 133.476 15.862 133.476 19.3457V41.2856C133.476 42.2491 134.291 43.0645 135.255 43.0645C136.218 43.0645 137.033 42.2491 137.033 41.2856V32.1687C137.7 32.7616 138.812 33.0581 139.849 33.0581H139.924C143.481 33.0581 146.149 30.0191 146.149 26.5354V19.1974C146.149 15.7137 143.481 13.0454 139.924 13.0454ZM142.74 26.6837C142.74 28.6108 141.48 29.4262 139.998 29.4262H139.924C138.367 29.4262 137.181 28.6108 137.181 26.6837V19.3457C137.181 17.8632 138.441 16.6032 139.924 16.6032H139.998C141.554 16.6032 142.74 17.7891 142.74 19.3457V26.6837Z" fill="white"/>
<path fill-rule="evenodd" clip-rule="evenodd" d="M66.4046 20.9762C64.4036 20.1608 63.1437 19.642 63.1437 18.456C63.1437 17.4925 63.8848 16.603 65.5894 16.603C66.627 16.603 67.5163 17.0477 68.1833 17.9372C68.628 18.456 69.0727 18.7525 69.5915 18.7525C70.629 18.7525 71.4443 17.9372 71.4443 16.9736C71.4443 16.603 71.3701 16.2324 71.1478 16.01C70.0361 14.3053 67.7387 13.1193 65.5894 13.1193C62.6249 13.1193 59.5863 14.9723 59.5863 18.5302C59.5863 22.1621 62.5508 23.348 64.9965 24.2375C66.9234 24.9787 68.628 25.6458 68.628 27.2024C68.628 28.3883 67.5163 29.5742 65.4412 29.5742C64.7742 29.5742 63.5884 29.426 62.7731 28.4624C62.3285 27.9436 61.8097 27.7212 61.365 27.7212C60.4016 27.7212 59.5122 28.5365 59.5122 29.5001C59.5122 29.8707 59.6604 30.2413 59.8828 30.5378C60.9944 32.2426 63.5143 33.0579 65.4412 33.0579C68.7021 33.0579 72.2595 30.9825 72.2595 27.2024C72.1854 23.1998 68.9986 21.9397 66.4046 20.9762Z" fill="white"/>
<path d="M154.449 13.0453C152.522 13.0453 150.892 14.6019 150.892 16.6031C150.892 18.5303 152.448 20.1609 154.449 20.1609C156.376 20.1609 158.007 18.6044 158.007 16.6031C158.007 14.676 156.45 13.0453 154.449 13.0453ZM154.449 19.2715C152.967 19.2715 151.781 18.0856 151.781 16.6031C151.781 15.1207 152.967 13.9348 154.449 13.9348C155.931 13.9348 157.117 15.1207 157.117 16.6031C157.117 18.0856 155.931 19.2715 154.449 19.2715Z" fill="white"/>
<path d="M154.82 16.7516C155.265 16.6775 155.561 16.3069 155.561 15.8622C155.561 15.2692 155.117 14.8986 154.45 14.8986H153.56C153.338 14.8986 153.19 15.0468 153.19 15.2692V17.7152C153.19 17.9375 153.338 18.0858 153.56 18.0858C153.783 18.0858 153.931 17.9375 153.931 17.7152V16.8257L154.82 17.9376C154.894 18.0858 154.968 18.0858 155.191 18.0858C155.487 18.0858 155.561 17.8634 155.561 17.7152C155.561 17.5669 155.487 17.4928 155.413 17.4187L154.82 16.7516ZM154.524 16.2328H154.079V15.4915H154.524C154.746 15.4915 154.894 15.6398 154.894 15.8622C154.894 16.0104 154.746 16.2328 154.524 16.2328Z" fill="white"/>
</g>
<defs>
<clipPath id="clip0_2172_6517">
<rect width="158.6" height="46.6964" fill="white"/>
</clipPath>
</defs>
</svg>
