<svg width="165" height="42" viewBox="0 0 165 42" fill="none" xmlns="http://www.w3.org/2000/svg">
<g clip-path="url(#clip0_2172_6529)">
<g clip-path="url(#clip1_2172_6529)">
<path fill-rule="evenodd" clip-rule="evenodd" d="M24.4536 10.5759C24.3839 10.2651 24.3264 9.94991 24.2814 9.63089C24.204 9.08129 24.1641 8.5203 24.1641 7.95037H49.5857L58.7634 20.378H37.1111C30.8976 20.378 25.7088 16.1776 24.4536 10.5759ZM53.4979 17.7525H37.1111C32.3839 17.7525 28.4334 14.6965 27.2384 10.5759H48.1981L53.4979 17.7525Z" fill="white"/>
<path fill-rule="evenodd" clip-rule="evenodd" d="M61.1461 39.094C61.2121 39.393 61.2669 39.6959 61.3101 40.0025C61.3875 40.5521 61.4275 41.1132 61.4275 41.683H36.0059L26.8281 29.2554H48.4803C54.7074 29.2554 59.9053 33.4741 61.1461 39.094ZM32.0511 31.8444H48.4803C53.2014 31.8444 57.1836 34.9146 58.3666 39.094H37.4048L32.0511 31.8444Z" fill="white"/>
<path d="M34.9629 21.2659C34.9629 21.2659 40.5688 22.26 41.0198 29.2551H26.8252L34.9629 21.2659Z" fill="white"/>
<path d="M50.6272 28.3676C50.6272 28.3676 45.0214 27.3735 44.5703 20.3784H58.7649L50.6272 28.3676Z" fill="white"/>
<path d="M82.2765 29.1048C83.0719 29.1048 83.7658 28.808 84.3298 28.229C84.8937 27.65 85.183 26.9375 85.183 26.1211H72.6319L84.0985 10.3556L84.648 9.50941C85.0094 8.88592 85.183 8.36635 85.183 7.95068H70.3762C69.5808 7.95068 68.8868 8.24759 68.3229 8.82654C67.759 9.4055 67.4697 10.1181 67.4697 10.9345H80.0353L68.5976 26.6703L68.0337 27.5165C67.6577 28.1548 67.4697 28.6744 67.4697 29.1048H82.2765Z" fill="white"/>
<path d="M69.9913 17.7663C70.6515 17.3248 71.464 17.0984 72.3952 17.0984L98.3247 17.0984C98.3247 17.7324 98.1772 18.2758 97.517 18.7173C96.8568 19.1589 96.0442 19.3853 95.1132 19.3853H69.1836C69.1836 18.7513 69.3311 18.2079 69.9913 17.7663Z" fill="white"/>
<path d="M112.756 29.1049C114.487 29.1049 116.011 28.5918 117.342 27.5803C119.325 26.041 120.316 24.0473 120.316 21.6137V8.02401C119.502 8.02401 118.792 8.31721 118.215 8.88894C117.638 9.46068 117.342 10.1644 117.342 10.9853V21.6137C117.342 22.8598 116.898 23.93 115.996 24.8242C115.093 25.7185 114.014 26.1582 112.756 26.1582C111.484 26.1582 110.404 25.7185 109.501 24.8242C108.614 23.93 108.17 22.8598 108.17 21.6137V10.9853C108.17 10.1644 107.874 9.46068 107.297 8.88894C106.72 8.31721 106.01 8.02401 105.181 8.02401V21.6137C105.181 24.0473 106.173 26.041 108.17 27.5803C109.501 28.5918 111.025 29.1049 112.756 29.1049Z" fill="white"/>
<path d="M134.528 29.1048C136.761 29.1048 138.507 28.1226 139.764 26.1582C140.327 25.2346 140.607 24.2085 140.607 23.0796C140.607 21.9655 140.327 20.9393 139.764 20.0157V20.0011C138.655 18.2126 137.027 17.2304 134.868 17.0545H129.438C128.536 17.0545 127.766 16.7173 127.16 16.0576C126.612 15.4859 126.346 14.7968 126.346 13.9906C126.346 13.1403 126.642 12.4219 127.249 11.8209C127.855 11.2198 128.595 10.912 129.438 10.912H137.634C138.448 10.912 139.158 10.6188 139.735 10.047C140.312 9.47531 140.607 8.77164 140.607 7.95068H129.438C127.766 7.95068 126.331 8.53708 125.148 9.72453C123.949 10.8827 123.358 12.3047 123.358 13.9906C123.358 15.1047 123.639 16.1309 124.201 17.0545C125.296 18.8136 126.923 19.7958 129.068 20.0011H134.528C135.386 20.0011 136.11 20.3089 136.716 20.91C137.323 21.5111 137.619 22.2441 137.619 23.109C137.619 24.0326 137.264 24.7949 136.539 25.3959C135.933 25.9091 135.238 26.1582 134.453 26.1582H126.346C125.518 26.1582 124.807 26.4514 124.23 27.0231C123.653 27.5949 123.358 28.2986 123.358 29.1048H134.528Z" fill="white"/>
<path d="M102.325 29.1048C102.325 28.2811 102.038 27.575 101.479 27.0012C100.92 26.4276 100.233 26.1333 99.4445 26.1333H91.5059V10.9076H99.4445C100.233 10.9076 100.92 10.6133 101.479 10.0396C102.038 9.4659 102.325 8.75978 102.325 7.95068H88.6113V29.1048H88.726H102.325Z" fill="white"/>
<path d="M138.311 41.683H133.871C133.871 41.378 133.989 41.1116 134.219 40.8953C134.447 40.679 134.73 40.5681 135.059 40.5681H138.281C138.593 40.5681 138.869 40.4738 139.111 40.2797C139.399 40.0522 139.54 39.7638 139.54 39.4143C139.54 39.0871 139.422 38.8097 139.181 38.5823C138.941 38.3549 138.652 38.2383 138.311 38.2383H136.141C135.288 38.1607 134.642 37.7891 134.207 37.1234C133.983 36.7739 133.871 36.3857 133.871 35.9641C133.871 35.3262 134.106 34.7881 134.582 34.3499C135.053 33.9006 135.624 33.6787 136.288 33.6787H140.728C140.728 33.9894 140.61 34.2556 140.381 34.4719C140.152 34.6882 139.87 34.7993 139.546 34.7993H136.288C135.953 34.7993 135.658 34.9157 135.418 35.1431C135.177 35.3706 135.059 35.6424 135.059 35.9641C135.059 36.2692 135.165 36.5299 135.382 36.7462C135.624 36.9959 135.929 37.1234 136.288 37.1234H138.446C139.304 37.1899 139.952 37.5616 140.392 38.2383V38.2438C140.616 38.5933 140.728 38.9817 140.728 39.4032C140.728 39.8303 140.616 40.2186 140.392 40.5681C139.893 41.3114 139.199 41.683 138.311 41.683Z" fill="white" stroke="white" stroke-width="0.0320499"/>
<path d="M128.732 41.683C127.625 41.683 126.68 41.2936 125.898 40.5205C125.121 39.7417 124.729 38.8017 124.729 37.7003C124.729 36.5712 125.121 35.62 125.898 34.8469C126.68 34.0681 127.625 33.6787 128.732 33.6787C129.833 33.6787 130.778 34.0681 131.555 34.8469C132.338 35.62 132.729 36.5601 132.729 37.6614C132.729 38.7906 132.338 39.7417 131.555 40.5205C130.778 41.2936 129.833 41.683 128.732 41.683ZM128.766 40.4426C129.543 40.4426 130.202 40.17 130.756 39.625C131.309 39.0742 131.583 38.4179 131.583 37.6447C131.583 36.8716 131.309 36.2097 130.756 35.6645C130.202 35.1138 129.543 34.8413 128.766 34.8413C127.989 34.8413 127.323 35.1138 126.77 35.6645C126.222 36.2097 125.948 36.8716 125.948 37.6447C125.948 38.4179 126.222 39.0742 126.77 39.625C127.323 40.17 127.989 40.4426 128.766 40.4426Z" fill="white" stroke="white" stroke-width="0.0320499"/>
<path d="M105.647 40.2191L105.659 40.2136L105.647 40.2024L105.641 40.1968C105.641 40.2024 105.641 40.2024 105.636 40.2079C105.584 40.2692 105.532 40.3304 105.474 40.3861L105.647 40.2191ZM103.631 38.3043L103.643 38.2987L103.631 38.2876L102.938 37.6253C102.932 37.6308 102.932 37.6308 102.927 37.6308L103.631 38.3043ZM104.417 35.8496L104.226 36.0277C104.301 35.9776 104.365 35.922 104.417 35.8496ZM105.445 40.4084L105.387 40.464L105.474 40.3861C105.468 40.3916 105.457 40.4028 105.445 40.4084ZM104.752 39.3508L104.734 39.3341V39.3397L104.729 39.3452C104.683 39.412 104.631 39.4733 104.579 39.5289L104.752 39.3674L104.758 39.3563L104.752 39.3508ZM107.033 38.0816H108.038L106.127 39.8629L108.038 41.6663H107.455C106.6 41.6663 105.838 41.3657 105.174 40.7645L105.162 40.7534L105.156 40.7479C105.156 40.7534 105.156 40.7534 105.15 40.759C105.098 40.8203 105.046 40.8815 104.989 40.9371L104.908 41.0151H104.902C104.417 41.4604 103.833 41.683 103.158 41.683C102.932 41.683 102.713 41.6552 102.499 41.5996C102.054 41.4826 101.673 41.2711 101.355 40.965C101.286 40.8926 101.217 40.8203 101.153 40.7423C100.87 40.3973 100.697 39.9965 100.633 39.54C100.616 39.4343 100.61 39.3285 100.61 39.2227C100.61 38.5493 100.859 37.9703 101.355 37.4861C101.413 37.4304 101.477 37.3803 101.54 37.3302C101.13 36.9127 100.922 36.4173 100.922 35.8385C100.922 35.2429 101.142 34.7308 101.575 34.3078C102.014 33.8903 102.54 33.6787 103.158 33.6787C103.776 33.6787 104.307 33.8903 104.746 34.3078C105.179 34.7308 105.399 35.2429 105.399 35.8385V35.8662C105.381 36.3951 105.208 36.846 104.873 37.2245L104.105 37.9481L104.099 37.9592L105.214 39.0168L105.225 39.0056L105.63 38.616C106.04 38.2597 106.508 38.0816 107.033 38.0816ZM102.47 35.1705C102.28 35.3541 102.187 35.5713 102.187 35.8329C102.187 36.0945 102.28 36.3116 102.47 36.4953C102.551 36.5677 103.198 37.0964 103.192 37.0909L103.204 37.0964L103.741 36.5843C103.816 36.5342 103.88 36.473 103.932 36.4006C104.064 36.2393 104.134 36.0499 104.134 35.8329C104.134 35.5713 104.041 35.3541 103.851 35.1705C103.66 34.9868 103.429 34.8921 103.158 34.8921C102.892 34.8921 102.661 34.9868 102.47 35.1705ZM104.093 40.08L104.267 39.9185L104.272 39.9074L104.267 39.9018L104.249 39.8907L104.243 39.8851L103.158 38.8498L103.146 38.8387L102.453 38.1762C102.447 38.1819 102.447 38.1819 102.441 38.1819C102.372 38.232 102.309 38.2821 102.245 38.3377C101.997 38.5826 101.87 38.8777 101.87 39.2172C101.87 39.4621 101.933 39.6847 102.066 39.8795C102.118 39.963 102.176 40.0354 102.245 40.1022C102.499 40.3415 102.805 40.464 103.158 40.464C103.504 40.464 103.805 40.3471 104.053 40.119C104.059 40.1133 104.07 40.1077 104.076 40.1022L104.088 40.0855L104.093 40.08Z" fill="white"/>
<path d="M105.474 40.3861C105.532 40.3304 105.584 40.2692 105.636 40.2079C105.641 40.2024 105.641 40.2024 105.641 40.1968L105.647 40.2024L105.659 40.2136L105.647 40.2191L105.474 40.3861ZM105.474 40.3861L105.387 40.464L105.445 40.4084C105.457 40.4028 105.468 40.3916 105.474 40.3861ZM103.631 38.3043L103.643 38.2987L103.631 38.2876L102.938 37.6253C102.932 37.6308 102.932 37.6308 102.927 37.6308L103.631 38.3043ZM104.417 35.8496L104.226 36.0277C104.301 35.9776 104.365 35.922 104.417 35.8496ZM104.752 39.3508L104.734 39.3341V39.3397L104.729 39.3452C104.683 39.412 104.631 39.4733 104.579 39.5289L104.752 39.3674L104.758 39.3563L104.752 39.3508ZM107.033 38.0816H108.038L106.127 39.8629L108.038 41.6663H107.455C106.6 41.6663 105.838 41.3657 105.174 40.7645L105.162 40.7534L105.156 40.7479C105.156 40.7534 105.156 40.7534 105.15 40.759C105.098 40.8203 105.046 40.8815 104.989 40.9371L104.908 41.0151H104.902C104.417 41.4604 103.833 41.683 103.158 41.683C102.932 41.683 102.713 41.6552 102.499 41.5996C102.054 41.4826 101.673 41.2711 101.355 40.965C101.286 40.8926 101.217 40.8203 101.153 40.7423C100.87 40.3973 100.697 39.9965 100.633 39.54C100.616 39.4343 100.61 39.3285 100.61 39.2227C100.61 38.5493 100.859 37.9703 101.355 37.4861C101.413 37.4304 101.477 37.3803 101.54 37.3302C101.13 36.9127 100.922 36.4173 100.922 35.8385C100.922 35.2429 101.142 34.7308 101.575 34.3078C102.014 33.8903 102.54 33.6787 103.158 33.6787C103.776 33.6787 104.307 33.8903 104.746 34.3078C105.179 34.7308 105.399 35.2429 105.399 35.8385V35.8662C105.381 36.3951 105.208 36.846 104.873 37.2245L104.105 37.9481L104.099 37.9592L105.214 39.0168L105.225 39.0056L105.63 38.616C106.04 38.2597 106.508 38.0816 107.033 38.0816ZM102.47 35.1705C102.28 35.3541 102.187 35.5713 102.187 35.8329C102.187 36.0945 102.28 36.3116 102.47 36.4953C102.551 36.5677 103.198 37.0964 103.192 37.0909L103.204 37.0964L103.741 36.5843C103.816 36.5342 103.88 36.473 103.932 36.4006C104.064 36.2393 104.134 36.0499 104.134 35.8329C104.134 35.5713 104.041 35.3541 103.851 35.1705C103.66 34.9868 103.429 34.8921 103.158 34.8921C102.892 34.8921 102.661 34.9868 102.47 35.1705ZM104.093 40.08L104.267 39.9185L104.272 39.9074L104.267 39.9018L104.249 39.8907L104.243 39.8851L103.158 38.8498L103.146 38.8387L102.453 38.1762C102.447 38.1819 102.447 38.1819 102.441 38.1819C102.372 38.232 102.309 38.2821 102.245 38.3377C101.997 38.5826 101.87 38.8777 101.87 39.2172C101.87 39.4621 101.933 39.6847 102.066 39.8795C102.118 39.963 102.176 40.0354 102.245 40.1022C102.499 40.3415 102.805 40.464 103.158 40.464C103.504 40.464 103.805 40.3471 104.053 40.119C104.059 40.1133 104.07 40.1077 104.076 40.1022L104.088 40.0855L104.093 40.08Z" stroke="white" stroke-width="0.0320499"/>
<path d="M85.7539 41.683V33.6787H90.4751C91.2192 33.6787 91.8542 33.9068 92.3866 34.3685C92.919 34.8302 93.182 35.3808 93.182 36.0316C93.182 36.6769 92.919 37.2275 92.3866 37.6892C91.8606 38.1509 91.2255 38.379 90.4751 38.379H87.9477C87.9477 38.0675 88.076 37.8004 88.3262 37.5836C88.5764 37.3666 88.8842 37.2554 89.2435 37.2554H90.4751C90.8663 37.2554 91.1935 37.1385 91.4693 36.8993C91.7451 36.6602 91.8863 36.3709 91.8863 36.0316C91.8863 35.6924 91.7451 35.4031 91.4693 35.1639C91.1935 34.9248 90.8663 34.8024 90.4751 34.8024H87.0496V40.5595C87.0496 40.8653 86.9214 41.1324 86.6647 41.3548C86.4146 41.5718 86.1067 41.683 85.7539 41.683Z" fill="white" stroke="white" stroke-width="0.0320499"/>
<path d="M116.158 41.683V33.6787H120.879C121.623 33.6787 122.259 33.9068 122.791 34.3685C123.323 34.8302 123.586 35.3808 123.586 36.0316C123.586 36.6769 123.323 37.2275 122.791 37.6892C122.265 38.1509 121.63 38.379 120.879 38.379H118.352C118.352 38.0675 118.48 37.8004 118.73 37.5836C118.981 37.3666 119.288 37.2554 119.648 37.2554H120.879C121.271 37.2554 121.598 37.1385 121.874 36.8993C122.149 36.6602 122.291 36.3709 122.291 36.0316C122.291 35.6924 122.149 35.4031 121.874 35.1639C121.598 34.9248 121.271 34.8024 120.879 34.8024H117.454V40.5595C117.454 40.8653 117.326 41.1324 117.069 41.3548C116.819 41.5718 116.511 41.683 116.158 41.683Z" fill="white" stroke="white" stroke-width="0.0320499"/>
<path d="M82.9541 41.683C82.8388 41.683 82.6655 41.6552 82.441 41.5996C82.2164 41.5439 82.0113 41.3771 81.8252 41.1045L80.0612 38.3734H78.3549C78.3549 38.0675 78.4831 37.8004 78.7333 37.5836C78.9835 37.3666 79.2914 37.2554 79.6506 37.2554H80.8822C81.2736 37.2554 81.6007 37.1385 81.8766 36.8993C82.1523 36.6602 82.2935 36.3654 82.2935 36.0261C82.2935 35.6868 82.1523 35.4031 81.8766 35.1638C81.6007 34.9247 81.2736 34.8024 80.8822 34.8024H77.4568V40.5595C77.4568 40.8653 77.3285 41.1324 77.072 41.3493C76.8218 41.5662 76.5138 41.6774 76.1611 41.6774V33.6787H80.8822C81.6264 33.6787 82.2614 33.9068 82.7938 34.3685C83.3262 34.8301 83.5892 35.3808 83.5892 36.0261C83.5892 36.6769 83.3262 37.2275 82.7938 37.6892C82.4346 37.9951 82.0048 38.2065 81.4981 38.3122L83.5892 41.5384C83.3775 41.6329 83.1659 41.683 82.9541 41.683Z" fill="white" stroke="white" stroke-width="0.0320499"/>
<path d="M71.7472 37.6085H69.212C69.212 37.2969 69.3434 37.0297 69.5996 36.8125C69.8557 36.5954 70.171 36.4842 70.5322 36.4842H73.0673C73.0673 36.7959 72.9359 37.063 72.6798 37.2801C72.4237 37.4972 72.1084 37.6085 71.7472 37.6085ZM73.8751 41.683H67.6424H67.5898V33.6787H73.8751C73.8751 33.9849 73.7438 34.2521 73.4877 34.4691C73.2316 34.6862 72.9163 34.7975 72.5551 34.7975H68.9165V40.5586H72.5551C72.9163 40.5586 73.2316 40.6699 73.4877 40.887C73.7438 41.1042 73.8751 41.3714 73.8751 41.683Z" fill="white" stroke="white" stroke-width="0.0320499"/>
</g>
</g>
<defs>
<clipPath id="clip0_2172_6529">
<rect width="165" height="42" fill="white"/>
</clipPath>
<clipPath id="clip1_2172_6529">
<rect width="116.672" height="33.7821" fill="white" transform="translate(24.1641 7.95068)"/>
</clipPath>
</defs>
</svg>
