<svg width="232" height="60" viewBox="0 0 232 60" fill="none" xmlns="http://www.w3.org/2000/svg">
<g clip-path="url(#clip0_2172_6174)">
<path d="M73.7646 40.3453H53.7448C53.7259 40.6579 53.7165 40.8952 53.7165 41.061C53.7165 43.0046 54.2771 44.574 55.3983 45.7693C55.9157 46.3422 56.5495 46.7979 57.2572 47.1062C57.9649 47.4144 58.7303 47.568 59.5021 47.5566C62.1513 47.5566 64.2186 46.1993 65.7039 43.4848L72.8512 44.6675C71.4613 47.5114 69.6024 49.6458 67.2746 51.0709C64.9468 52.4959 62.3372 53.2066 59.4456 53.2028C55.4768 53.2028 52.2506 51.9604 49.7672 49.4757C47.2837 46.991 46.0413 43.7027 46.04 39.6108C46.04 35.6131 47.1619 32.0549 49.4056 28.9361C52.4603 24.7111 56.8253 22.5986 62.5004 22.5986C66.1139 22.5986 68.9878 23.7035 71.1223 25.9133C73.2567 28.1231 74.324 31.2187 74.324 35.2C74.3426 36.9312 74.1548 38.6585 73.7646 40.3453ZM67.0336 35.5296C67.0505 35.1812 67.0618 34.9156 67.0618 34.733C67.0618 32.5671 66.5703 30.9437 65.5872 29.8627C64.6041 28.7816 63.2857 28.2405 61.6322 28.2392C59.9799 28.2392 58.5008 28.8538 57.195 30.083C55.8893 31.3122 55.0041 33.1277 54.5395 35.5296H67.0336Z" fill="#04569B"/>
<path d="M79.401 23.286H86.8534L85.7611 28.437C88.5427 24.1995 91.4525 22.5986 94.6975 22.5986C95.9757 22.6276 97.2346 22.9179 98.3964 23.4518L95.3378 29.9192C94.5962 29.6584 93.815 29.5278 93.0288 29.5331C91.6565 29.5331 90.261 30.0466 88.8422 31.0736C87.3974 32.1348 86.2527 33.5527 85.52 35.1887C84.7215 36.9038 83.933 39.6234 83.1545 43.3473L81.2072 52.5116H73.2256L79.401 23.286Z" fill="#04569B"/>
<path d="M175.766 41.3576L183.714 42.787C182.435 46.2072 180.733 48.8137 178.228 50.5916C175.723 52.3694 172.823 53.2659 169.523 53.2659C165.757 53.2659 162.771 52.1535 160.568 49.9286C158.364 47.7038 157.261 44.6428 157.257 40.7455C157.243 37.6278 157.928 34.5466 159.261 31.7281C160.552 28.9439 162.652 26.6133 165.288 25.0404C167.953 23.4161 171.018 22.5681 174.139 22.592C177.623 22.592 180.404 23.4929 182.482 25.2946C184.56 27.0964 185.729 29.4681 185.987 32.4099L178.017 33.2103C177.832 31.5781 177.327 30.3734 176.501 29.5962C175.676 28.824 174.974 28.6262 173.638 28.6262C172.098 28.6262 170.663 29.0029 169.327 30.148C167.992 31.293 166.968 32.9937 166.254 35.2631C165.574 37.3245 165.213 39.4774 165.182 41.6476C165.182 43.3765 165.609 44.7099 166.463 45.6478C167.314 46.5895 168.382 46.6761 169.664 46.6761C170.947 46.6761 171.8 46.5951 172.987 45.6742C174.173 44.7532 175.098 43.1957 175.766 41.3576Z" fill="#04569B"/>
<path d="M185.655 29.0443L186.879 23.2342H190.772L191.557 18.4072L200.833 13.1829L198.949 23.2342H203.628L202.404 29.0443H197.507L194.921 41.1862C194.458 43.3859 194.226 44.6415 194.226 44.9528C194.212 45.2158 194.257 45.4785 194.358 45.7217C194.459 45.9649 194.614 46.1823 194.81 46.3578C195.198 46.6955 195.902 46.8638 196.923 46.8625C197.275 46.8625 198.153 46.7998 199.56 46.6742L198.307 52.6745C196.915 52.9493 195.5 53.0862 194.081 53.0832C191.261 53.0832 189.212 52.5515 187.934 51.488C187.269 50.9576 186.734 50.2828 186.368 49.5146C186.003 48.7464 185.818 47.9051 185.826 47.0546C185.826 46.1638 186.169 43.9189 186.855 40.7003L189.331 29.05L185.655 29.0443Z" fill="#04569B"/>
<path d="M204.788 23.1628H212.77L209.12 40.5818C208.675 42.6685 208.453 43.9699 208.453 44.486C208.448 44.8963 208.53 45.303 208.692 45.68C208.854 46.0569 209.093 46.3957 209.395 46.6744C210.025 47.2827 210.832 47.3995 211.815 47.3995C212.529 47.3977 213.236 47.2616 213.9 46.9983C214.592 46.7575 215.242 46.4099 215.826 45.9681C216.548 45.4248 217.201 44.797 217.774 44.098C218.431 43.2508 218.973 42.3198 219.386 41.3295C219.738 40.4807 220.119 39.0959 220.527 37.1748L223.474 23.1628H231.646L225.471 52.573H218.016L218.851 48.5841C215.586 51.7054 212.036 53.2654 208.199 53.2642C205.769 53.2642 203.859 52.5736 202.47 51.1925C201.08 49.8114 200.384 47.9563 200.383 45.6273C200.383 44.6128 200.697 42.5913 201.324 39.5629L204.788 23.1628Z" fill="#04569B"/>
<path d="M130.528 23.2612L144.398 23.3366C144.431 23.3371 144.463 23.346 144.491 23.3625C144.519 23.3791 144.542 23.4026 144.558 23.4307L161.407 52.355C161.422 52.3831 161.429 52.4145 161.429 52.4464C161.428 52.4783 161.42 52.5095 161.404 52.5371C161.388 52.5648 161.366 52.588 161.339 52.6045C161.311 52.6211 161.28 52.6305 161.249 52.6318H147.378C147.237 52.6319 147.099 52.5948 146.977 52.5244C146.855 52.454 146.753 52.3527 146.683 52.2307L130.226 23.7773C130.196 23.7247 130.18 23.6651 130.181 23.6045C130.181 23.5439 130.197 23.4844 130.228 23.4321C130.258 23.3798 130.302 23.3364 130.355 23.3064C130.407 23.2764 130.467 23.2608 130.528 23.2612Z" fill="#04569B"/>
<path d="M99.1881 23.15H107.17L105.925 29.0354C104.273 29.4216 102.765 30.2706 101.577 31.483C100.39 32.6954 99.5731 34.2209 99.2217 35.881C98.8703 37.541 98.9992 39.2668 99.5934 40.8562C100.187 42.4457 101.222 43.8329 102.576 44.8554L100.996 52.3191H93.0127L99.1881 23.15ZM101.337 12.0515H109.507L107.985 19.3965H99.8869L101.337 12.0515Z" fill="#04569B"/>
<path d="M129.797 23.1045L128.573 28.8826H122.923L117.976 52.3245H109.994L111.299 46.1415C112.568 45.6783 113.711 44.9269 114.639 43.9464C115.567 42.9659 116.255 41.7832 116.648 40.4915C117.642 37.3482 117.025 33.8998 114.414 31.3912L114.953 28.8826H110.495L111.719 23.1045H116.17L116.808 20.1044C117.328 17.646 117.819 15.9862 118.283 15.1249C118.928 13.9357 119.911 12.964 121.108 12.3319C122.363 11.6451 124 11.3011 126.018 11.2998C128.465 11.2998 131.039 11.7392 133.739 12.6181L132.189 18.4565C130.28 17.8149 128.731 17.4941 127.545 17.4941C126.635 17.4941 125.958 17.7785 125.515 18.3472C125.217 18.7145 124.912 19.4885 124.596 21.0479L124.151 23.1196L129.797 23.1045Z" fill="#04569B"/>
<path d="M33.7817 39.3602C34.3467 38.4186 35.0322 37.1097 35.5708 36.2527C37.1717 33.7102 41.5034 27.5611 41.6917 27.3069C41.6917 27.3069 46.5884 20.7152 52.615 14.1236C54.3425 12.2123 56.1654 10.3894 58.0767 8.66188C58.5494 8.23625 59.0824 7.8125 60.1484 6.96688C60.5285 6.6461 60.9385 6.36232 61.3725 6.11938C61.9053 5.80067 62.4974 5.5937 63.1127 5.51106C63.5372 5.46926 63.9653 5.48383 64.3859 5.55438C64.8605 5.61841 66.0903 5.80298 67.0225 6.87271C67.35 7.26108 67.5999 7.70859 67.7589 8.19105C67.9098 8.67854 67.9792 9.18762 67.9642 9.69772C67.8813 11.3607 66.1694 12.8278 65.8925 13.0877C63.8209 15.037 61.9093 17.1407 59.8659 19.1144C57.8738 21.0185 55.9876 23.0304 54.2159 25.1411C53.2026 26.3671 52.5209 27.2937 51.2025 29.0961C48.6789 32.5426 46.9029 35.2282 43.8575 39.8311C43.3302 40.6296 42.7821 41.4489 42.1493 42.4131C41.8876 42.8143 41.4469 43.4885 40.2792 45.2927C38.3544 48.2684 38.5051 48.0631 38.2075 48.4944C36.8176 50.5133 36.1057 51.5379 35.1942 52.2611C34.2826 52.9843 33.6875 53.3553 33.2317 53.5455C32.4322 53.9118 31.5482 54.0537 30.6742 53.9561C30.0274 53.8746 29.4077 53.6466 28.8624 53.2894C28.4147 52.9987 28.0366 52.6129 27.755 52.1594C27.48 51.7093 27.4819 51.4663 27.19 50.4644C26.9885 49.7732 27.0017 49.9483 26.625 48.7694C26.1504 47.2966 26.1579 47.1271 25.8717 46.321C25.6284 45.6457 25.3455 44.9854 25.0242 44.3435C24.3895 43.0252 23.4723 41.1419 21.9167 39.541C21.7754 39.396 21.2575 38.88 20.2217 37.846C19.3666 36.9929 19.3629 36.9929 19.28 36.9044C18.6453 36.2245 17.7338 35.183 17.3967 33.891C17.3402 33.6726 17.0388 31.2996 18.6208 29.8419C20.2028 28.3842 22.4026 28.9529 22.9525 29.0885C23.7321 29.3012 24.4661 29.6548 25.1183 30.1319C25.8717 30.6423 26.3557 31.1489 27.0845 31.9286C27.7241 32.6143 28.3251 33.3348 28.885 34.0869C30.1234 35.7726 31.2556 37.5338 32.275 39.3602L33.0283 40.4902L33.7817 39.3602Z" fill="#E8B80D" stroke="#075799" stroke-width="1.88333" stroke-miterlimit="10"/>
<path d="M132.374 32.6764C132.311 32.6053 132.224 32.5599 132.13 32.5488C132.035 32.5377 131.94 32.5616 131.862 32.6161C128.485 35.9028 125.97 39.9708 124.54 44.4604C124.485 44.6317 124.469 44.8128 124.493 44.9909C124.517 45.169 124.58 45.3396 124.677 45.4906L126.536 48.5039C126.587 48.583 126.751 48.519 126.766 48.4248C127.527 43.7427 129.746 39.4201 133.107 36.072C133.284 35.8982 133.403 35.6746 133.45 35.4311C133.497 35.1875 133.468 34.9355 133.369 34.7085C133.242 34.4204 133.101 34.1209 132.939 33.8139C132.719 33.3883 132.596 33.0192 132.374 32.6764Z" fill="#D3352D" stroke="#CD3333" stroke-width="0.188333" stroke-miterlimit="10"/>
<path d="M127.666 50.7574L129.199 53.2057C129.305 53.3761 129.457 53.5132 129.637 53.6015C129.817 53.6897 130.019 53.7255 130.218 53.7048C130.874 53.637 131.668 53.5391 132.563 53.3903C136.087 52.8066 139.51 51.7288 142.733 50.1886C146.613 48.3241 149.176 46.2637 150.831 44.9153C152.338 43.6836 154.572 41.8473 156.858 38.8886C157.884 37.5609 159.078 35.9939 160.06 33.6153C160.668 32.1386 161.097 30.5937 161.335 29.0143C161.349 28.9222 161.343 28.8281 161.318 28.7384C161.292 28.6488 161.248 28.5656 161.188 28.4945L159.304 26.2703C158.564 29.2388 157.287 32.0471 155.538 34.5569C154.414 36.1101 153.153 37.5598 151.771 38.8886C150.416 40.243 148.969 41.5016 147.439 42.6553C146.169 43.6041 144.849 44.4842 143.484 45.2919C141.962 46.1947 140.39 47.0121 138.776 47.7403C134.565 49.6067 130.341 50.3977 127.666 50.7574Z" fill="#E8B80D" stroke="#E8B80D" stroke-width="0.188333" stroke-miterlimit="10"/>
<path d="M103.108 34.7601C103.784 34.7601 104.332 34.212 104.332 33.5359C104.332 32.8598 103.784 32.3118 103.108 32.3118C102.432 32.3118 101.884 32.8598 101.884 33.5359C101.884 34.212 102.432 34.7601 103.108 34.7601Z" fill="#D3352D"/>
<path d="M110.494 31.7846C110.827 31.1442 110.601 30.3667 109.988 30.0479C109.375 29.7291 108.608 29.9897 108.275 30.6301C107.942 31.2704 108.169 32.048 108.781 32.3668C109.394 32.6856 110.161 32.4249 110.494 31.7846Z" fill="#D3352D"/>
<path d="M115.444 36.1586C115.775 35.5228 115.524 34.7373 114.884 34.4041C114.243 34.0709 113.456 34.3162 113.125 34.9519C112.795 35.5877 113.045 36.3731 113.686 36.7063C114.326 37.0396 115.113 36.7943 115.444 36.1586Z" fill="#D3352D"/>
<path d="M114.359 43.0831C114.66 42.5055 114.422 41.787 113.829 41.4783C113.236 41.1695 112.511 41.3875 112.21 41.9651C111.91 42.5427 112.147 43.2613 112.741 43.57C113.334 43.8787 114.058 43.6607 114.359 43.0831Z" fill="#D3352D"/>
<path d="M107.912 45.4276C108.215 44.8454 107.959 44.1123 107.339 43.7901C106.72 43.4679 105.973 43.6788 105.67 44.261C105.367 44.8432 105.623 45.5763 106.242 45.8985C106.861 46.2207 107.609 46.0098 107.912 45.4276Z" fill="#D3352D"/>
<path d="M102.806 40.9915C103.109 40.4093 102.887 39.6936 102.309 39.3931C101.731 39.0925 101.018 39.3208 100.715 39.9031C100.412 40.4853 100.634 41.2009 101.212 41.5015C101.789 41.802 102.503 41.5737 102.806 40.9915Z" fill="#D3352D"/>
<path d="M103.841 32.5804C104.517 33.2433 105.288 34.0871 106.007 34.9346C106.642 35.6879 107.203 36.4149 107.702 37.1098C107.716 37.1292 107.735 37.1438 107.758 37.1515C107.78 37.1593 107.804 37.1597 107.827 37.1528C107.85 37.1459 107.87 37.1321 107.884 37.1132C107.899 37.0943 107.907 37.0714 107.907 37.0477C108.039 33.9063 108.082 32.5484 108.082 32.2659V32.1096C108.082 32.0041 108.082 30.7912 108.209 31.5446C108.284 31.9815 108.175 30.9796 108.246 30.876C108.357 30.7121 108.585 30.6104 108.666 30.6632C109.263 31.053 109.862 31.522 110.461 31.8666L108.738 37.0872C108.731 37.1099 108.73 37.1343 108.737 37.1572C108.744 37.18 108.757 37.2003 108.776 37.2153C108.794 37.2304 108.817 37.2395 108.841 37.2415C108.865 37.2435 108.888 37.2383 108.909 37.2266L113.429 34.5767L114.29 36.8593L109.114 38.0703C109.089 38.0765 109.066 38.0896 109.048 38.1083C109.03 38.1269 109.018 38.1503 109.012 38.1758C109.007 38.2012 109.009 38.2276 109.018 38.2519C109.027 38.2763 109.043 38.2975 109.064 38.3133C109.585 38.705 110.02 38.9894 110.341 39.189L111.094 39.6429C111.793 40.0629 111.774 40.0441 112.036 40.2079C112.297 40.3718 112.689 40.6166 113.166 40.9612C113.452 41.1684 113.685 41.3511 113.855 41.4886C113.866 41.4965 113.876 41.5069 113.884 41.5189C113.891 41.5309 113.896 41.5443 113.898 41.5583C113.9 41.5721 113.898 41.5862 113.894 41.5995C113.89 41.6128 113.883 41.625 113.874 41.6355L112.367 43.2759C112.11 43.0927 111.872 42.8852 111.655 42.6562C111.387 42.3567 111.135 42.0423 110.902 41.7146C110.795 41.5529 110.678 41.3982 110.551 41.2513C110.322 40.9669 110.199 40.8558 109.96 40.5846C109.721 40.3134 109.583 40.1382 109.425 39.9311C109.151 39.595 108.858 39.2744 108.548 38.9706C108.523 38.9468 108.493 38.9306 108.459 38.924C108.426 38.9173 108.392 38.9204 108.36 38.933C108.329 38.9456 108.301 38.967 108.282 38.9948C108.262 39.0225 108.251 39.0553 108.25 39.0892C108.141 41.7598 108.079 43.6732 108.079 43.8503C108.079 44.0273 108.079 44.1629 108.079 44.1629V44.7279C108.074 44.8795 108.051 45.0299 108.011 45.1762L105.563 44.5923C106.229 42.7014 106.895 40.8099 107.559 38.9178C107.569 38.8888 107.571 38.8572 107.562 38.8275C107.554 38.7978 107.536 38.7715 107.512 38.7524C107.488 38.7332 107.458 38.7221 107.428 38.7207C107.397 38.7193 107.366 38.7277 107.34 38.7446C106.47 39.2983 105.525 39.8538 104.5 40.3962C103.787 40.7729 103.088 41.1176 102.414 41.4283C102.37 41.4503 102.319 41.4544 102.272 41.4396C102.249 41.4315 102.228 41.4183 102.211 41.401C102.194 41.3837 102.181 41.3628 102.173 41.3398L101.495 39.4791C101.486 39.4596 101.481 39.4384 101.481 39.417C101.482 39.3955 101.487 39.3745 101.497 39.3553C101.506 39.3362 101.52 39.3194 101.537 39.3063C101.554 39.2931 101.573 39.284 101.594 39.2794C102.355 39.0798 103.136 38.8871 103.935 38.7012C105.005 38.4501 106.051 38.2273 107.073 38.0327C107.107 38.0265 107.139 38.0099 107.164 37.9851C107.189 37.9603 107.205 37.9286 107.211 37.8941C107.217 37.8597 107.213 37.8242 107.198 37.7924C107.184 37.7606 107.16 37.734 107.129 37.7163C106.218 37.1626 105.274 36.5524 104.304 35.8762C103.611 35.3903 102.948 34.9459 102.327 34.4637C102.285 34.4092 102.261 34.3438 102.255 34.2754C102.254 34.2479 102.259 34.2204 102.27 34.1951C102.281 34.1699 102.298 34.1477 102.319 34.1304L103.583 32.6614C103.674 32.5804 103.76 32.4844 103.841 32.5804Z" fill="#D3352D"/>
</g>
<defs>
<clipPath id="clip0_2172_6174">
<rect width="215.258" height="50.3905" fill="white" transform="translate(16.3945 4.54419)"/>
</clipPath>
</defs>
</svg>
