<svg width="30" height="30" viewBox="0 0 30 30" fill="none" xmlns="http://www.w3.org/2000/svg">
<path d="M15.6249 28.4375H5.0999C3.1374 28.4375 1.5249 26.8625 1.5249 24.9125V6.36249C1.5249 4.44999 2.2374 2.96249 3.5374 2.14999C4.8499 1.32499 6.5499 1.34999 8.3124 2.22499L13.8624 4.94999C15.3749 5.69999 16.5624 7.58749 16.5624 9.26249V27.5C16.5624 28.0125 16.1374 28.4375 15.6249 28.4375ZM5.6999 3.43749C5.2624 3.43749 4.8624 3.53749 4.5249 3.74999C3.7999 4.19999 3.3999 5.13749 3.3999 6.36249V24.9125C3.3999 25.825 4.1624 26.5625 5.0999 26.5625H14.6874V9.26249C14.6874 8.29999 13.9124 7.06249 13.0249 6.63749L7.4749 3.91249C6.8374 3.59999 6.2374 3.43749 5.6999 3.43749Z" fill="#FF8A58"/>
<path d="M23.5125 28.4375H15.625C15.1125 28.4375 14.6875 28.0125 14.6875 27.5V13.025C14.6875 12.7375 14.8125 12.475 15.0375 12.3C15.2625 12.125 15.5375 12.05 15.825 12.1125L16.4125 12.2375L24.5875 14.0625C27.075 14.6125 28.325 16.075 28.4 18.5625C28.4125 18.5625 28.4125 18.6875 28.4125 18.825V23.55C28.4 26.75 26.7125 28.4375 23.5125 28.4375ZM16.5625 26.5625H23.5125C25.7125 26.5625 26.525 25.75 26.525 23.55V18.725C26.4625 17.0125 25.8125 16.25 24.175 15.8875L16.5625 14.1875V26.5625Z" fill="#FF8A58"/>
<path d="M11.2125 12.1875H6.875C6.3625 12.1875 5.9375 11.7625 5.9375 11.25C5.9375 10.7375 6.3625 10.3125 6.875 10.3125H11.2125C11.725 10.3125 12.15 10.7375 12.15 11.25C12.15 11.7625 11.7375 12.1875 11.2125 12.1875Z" fill="#FF8A58"/>
<path d="M11.2125 17.1875H6.875C6.3625 17.1875 5.9375 16.7625 5.9375 16.25C5.9375 15.7375 6.3625 15.3125 6.875 15.3125H11.2125C11.725 15.3125 12.15 15.7375 12.15 16.25C12.15 16.7625 11.7375 17.1875 11.2125 17.1875Z" fill="#FF8A58"/>
<path d="M19.0249 22.1875C16.9624 22.1875 15.2749 20.5 15.2749 18.4375V13.15C15.2749 12.8625 15.3999 12.6 15.6249 12.4125C15.8499 12.225 16.1374 12.1625 16.4124 12.225L22.0374 13.4875C22.4624 13.5875 22.7749 13.9625 22.7749 14.4V18.425C22.7749 20.5 21.0999 22.1875 19.0249 22.1875ZM17.1499 14.325V18.4375C17.1499 19.475 17.9874 20.3125 19.0249 20.3125C20.0624 20.3125 20.8999 19.475 20.8999 18.4375V15.1625L17.1499 14.325Z" fill="#FF8A58"/>
<path d="M24.6499 22.1875C22.5874 22.1875 20.8999 20.5 20.8999 18.4375V14.4125C20.8999 14.125 21.0249 13.8625 21.2499 13.6875C21.4749 13.5125 21.7624 13.4375 22.0374 13.5L24.5749 14.0625C27.0624 14.6125 28.3124 16.075 28.3874 18.5625C28.3874 18.5875 28.3874 18.6125 28.3874 18.6375C28.2874 20.625 26.6499 22.1875 24.6499 22.1875ZM22.7749 15.575V18.4375C22.7749 19.475 23.6124 20.3125 24.6499 20.3125C25.6374 20.3125 26.4499 19.55 26.5124 18.575C26.4499 17 25.7999 16.25 24.1749 15.8875L22.7749 15.575Z" fill="#FF8A58"/>
</svg>
