<svg width="30" height="30" viewBox="0 0 30 30" fill="none" xmlns="http://www.w3.org/2000/svg">
<path d="M18.7124 28.4375H11.2124C4.4249 28.4375 1.5249 25.5375 1.5249 18.75V11.25C1.5249 4.4625 4.4249 1.5625 11.2124 1.5625H18.7124C25.4999 1.5625 28.3999 4.4625 28.3999 11.25V18.75C28.3999 25.5375 25.5124 28.4375 18.7124 28.4375ZM11.2124 3.4375C5.4499 3.4375 3.3999 5.4875 3.3999 11.25V18.75C3.3999 24.5125 5.4499 26.5625 11.2124 26.5625H18.7124C24.4749 26.5625 26.5249 24.5125 26.5249 18.75V11.25C26.5249 5.4875 24.4749 3.4375 18.7124 3.4375H11.2124Z" fill="#FF8A58"/>
<path d="M14.3125 22.575C14.0125 22.575 13.2875 22.4625 12.8625 21.375L11.4375 17.775C11.2375 17.2625 10.525 16.7875 9.98755 16.7875L2.48755 16.8125C1.97505 16.8125 1.55005 16.4 1.55005 15.875C1.55005 15.3625 1.96255 14.9375 2.48755 14.9375L9.98755 14.9125H10C11.3125 14.9125 12.7125 15.8625 13.2 17.0875L14.3375 19.9625L16.9125 13.4375C17.3 12.4625 17.9875 12.325 18.275 12.3C18.5625 12.2875 19.2625 12.35 19.75 13.275L21.05 15.7375C21.275 16.1625 21.9501 16.575 22.4375 16.575H27.5126C28.025 16.575 28.4501 17 28.4501 17.5125C28.4501 18.025 28.025 18.45 27.5126 18.45H22.4375C21.25 18.45 19.9501 17.6625 19.4 16.6125L18.425 14.7625L15.8 21.375C15.3375 22.45 14.6 22.575 14.3125 22.575Z" fill="#FF8A58"/>
</svg>
