<svg width="30" height="30" viewBox="0 0 30 30" fill="none" xmlns="http://www.w3.org/2000/svg">
<path d="M21.25 27.1875H20C19.4875 27.1875 19.0625 26.7625 19.0625 26.25C19.0625 25.7375 19.4875 25.3125 20 25.3125H21.25C24.475 25.3125 26.5625 23.225 26.5625 20V10C26.5625 6.775 24.475 4.6875 21.25 4.6875H8.75C5.525 4.6875 3.4375 6.775 3.4375 10V11.25C3.4375 11.7625 3.0125 12.1875 2.5 12.1875C1.9875 12.1875 1.5625 11.7625 1.5625 11.25V10C1.5625 5.7 4.45 2.8125 8.75 2.8125H21.25C25.55 2.8125 28.4375 5.7 28.4375 10V20C28.4375 24.3 25.55 27.1875 21.25 27.1875Z" fill="#FF8A58"/>
<path d="M15.3627 26.3249C14.9002 26.3249 14.5002 25.9749 14.4377 25.5124C13.7502 20.1624 9.85021 16.2499 4.48771 15.5624C3.97521 15.4999 3.61272 15.0249 3.67522 14.5124C3.73772 13.9999 4.21272 13.6374 4.72522 13.6999C10.9502 14.4999 15.5002 19.0374 16.2877 25.2624C16.3502 25.7749 15.9877 26.2499 15.4752 26.3124C15.4502 26.3249 15.4002 26.3249 15.3627 26.3249Z" fill="#FF8A58"/>
<path d="M11.1623 27.6624C10.6998 27.6624 10.2998 27.3125 10.2373 26.85C9.74984 23.0375 6.96234 20.2499 3.14984 19.7624C2.63734 19.6999 2.27483 19.2249 2.33733 18.7124C2.39983 18.1999 2.87484 17.8375 3.38734 17.9C8.07484 18.5 11.4873 21.9249 12.0873 26.5999C12.1498 27.1124 11.7873 27.5874 11.2748 27.6499C11.2373 27.6624 11.1998 27.6624 11.1623 27.6624Z" fill="#FF8A58"/>
<path d="M6.41278 28.4624C5.95028 28.4624 5.55027 28.1125 5.48777 27.65C5.27527 25.9625 4.03778 24.7249 2.35028 24.5124C1.83778 24.4499 1.47527 23.9749 1.53777 23.4624C1.60027 22.9499 2.07528 22.5875 2.58778 22.65C5.11278 22.975 7.02528 24.8874 7.35028 27.4124C7.41278 27.9249 7.05027 28.3999 6.53777 28.4624C6.50027 28.4624 6.46278 28.4624 6.41278 28.4624Z" fill="#FF8A58"/>
</svg>
