<svg width="30" height="30" viewBox="0 0 30 30" fill="none" xmlns="http://www.w3.org/2000/svg">
<path d="M12.5 22.125H7.7625C3.0125 22.125 1.5625 20.675 1.5625 15.925V8.42498C1.5625 3.67498 3.0125 2.22498 7.7625 2.22498H20.925C25.675 2.22498 27.125 3.67498 27.125 8.42498C27.125 8.93748 26.7 9.36248 26.1875 9.36248C25.675 9.36248 25.25 8.93748 25.25 8.42498C25.25 4.74998 24.6 4.09998 20.925 4.09998H7.7625C4.0875 4.09998 3.4375 4.74998 3.4375 8.42498V15.925C3.4375 19.6 4.0875 20.25 7.7625 20.25H12.5C13.0125 20.25 13.4375 20.675 13.4375 21.1875C13.4375 21.7 13.0125 22.125 12.5 22.125Z" fill="#FF8A58"/>
<path d="M12.5 27.775C11.9875 27.775 11.5625 27.35 11.5625 26.8375V21.175C11.5625 20.6625 11.9875 20.2375 12.5 20.2375C13.0125 20.2375 13.4375 20.6625 13.4375 21.175V26.8375C13.4375 27.3625 13.0125 27.775 12.5 27.775Z" fill="#FF8A58"/>
<path d="M12.5 17.125H2.5C1.9875 17.125 1.5625 16.7 1.5625 16.1875C1.5625 15.675 1.9875 15.25 2.5 15.25H12.5C13.0125 15.25 13.4375 15.675 13.4375 16.1875C13.4375 16.7 13.0125 17.125 12.5 17.125Z" fill="#FF8A58"/>
<path d="M12.5 27.775H8.425C7.9125 27.775 7.4875 27.35 7.4875 26.8375C7.4875 26.325 7.9125 25.9 8.425 25.9H12.5C13.0125 25.9 13.4375 26.325 13.4375 26.8375C13.4375 27.35 13.0125 27.775 12.5 27.775Z" fill="#FF8A58"/>
<path d="M23.8 27.775H19.3625C15.9 27.775 14.725 26.6 14.725 23.1375V16C14.725 12.5375 15.9 11.3625 19.3625 11.3625H23.8C27.2625 11.3625 28.4375 12.5375 28.4375 16V23.1375C28.4375 26.6125 27.2625 27.775 23.8 27.775ZM19.3625 13.2375C16.9125 13.2375 16.6 13.55 16.6 16V23.1375C16.6 25.5875 16.9125 25.9 19.3625 25.9H23.8C26.25 25.9 26.5625 25.5875 26.5625 23.1375V16C26.5625 13.55 26.25 13.2375 23.8 13.2375H19.3625Z" fill="#FF8A58"/>
<path d="M21.625 23.7125C21.3 23.7125 20.975 23.5875 20.7375 23.35C20.625 23.2375 20.5375 23.1 20.475 22.95C20.4125 22.7875 20.375 22.625 20.375 22.4625C20.375 22.1375 20.5125 21.8125 20.7375 21.5875C21.025 21.3 21.4625 21.1625 21.875 21.2375C21.95 21.2625 22.025 21.2875 22.1 21.3125C22.175 21.35 22.25 21.3875 22.3125 21.425C22.3875 21.475 22.45 21.525 22.5125 21.5875C22.7375 21.8125 22.875 22.1375 22.875 22.4625C22.875 22.625 22.8375 22.7875 22.775 22.95C22.7125 23.1 22.625 23.2375 22.5125 23.35C22.45 23.4125 22.3875 23.4625 22.3125 23.5C22.25 23.55 22.175 23.5875 22.1 23.625C22.025 23.65 21.95 23.675 21.875 23.6875C21.7875 23.7125 21.7125 23.7125 21.625 23.7125Z" fill="#FF8A58"/>
</svg>
