<svg width="30" height="30" viewBox="0 0 30 30" fill="none" xmlns="http://www.w3.org/2000/svg">
<path d="M24.275 14.6875H20C19.4875 14.6875 19.0625 14.2625 19.0625 13.75V5.0125C19.0625 4.0875 19.425 3.225 20.075 2.575C20.725 1.925 21.5875 1.5625 22.5125 1.5625H22.525C24.0875 1.575 25.5625 2.1875 26.6875 3.3C27.8125 4.4375 28.425 5.9375 28.425 7.5V10.525C28.4375 13.0125 26.7625 14.6875 24.275 14.6875ZM20.9375 12.8125H24.275C25.725 12.8125 26.5625 11.975 26.5625 10.525V7.5C26.5625 6.425 26.1375 5.4 25.375 4.625C24.6125 3.875 23.5875 3.45 22.525 3.4375C22.525 3.4375 22.525 3.4375 22.5125 3.4375C22.1 3.4375 21.7 3.6 21.4 3.9C21.1 4.2 20.9375 4.5875 20.9375 5.0125V12.8125Z" fill="#FF8A58"/>
<path d="M11.25 29.1625C10.6625 29.1625 10.1125 28.9375 9.7 28.5125L7.625 26.425C7.5125 26.3125 7.3375 26.3 7.2125 26.4L5.0625 28C4.4 28.5 3.525 28.5875 2.775 28.2125C2.025 27.8375 1.5625 27.0875 1.5625 26.25V7.5C1.5625 3.725 3.725 1.5625 7.5 1.5625H22.5C23.0125 1.5625 23.4375 1.9875 23.4375 2.5C23.4375 3.0125 23.0125 3.4375 22.5 3.4375C21.6375 3.4375 20.9375 4.1375 20.9375 5V26.25C20.9375 27.0875 20.475 27.8375 19.725 28.2125C18.975 28.5875 18.1 28.5125 17.4375 28.0125L15.3 26.4125C15.175 26.3125 15 26.3375 14.9 26.4375L12.8 28.5375C12.3875 28.9375 11.8375 29.1625 11.25 29.1625ZM7.3875 24.4625C7.9625 24.4625 8.525 24.675 8.95 25.1125L11.025 27.2C11.1 27.275 11.2 27.2875 11.25 27.2875C11.3 27.2875 11.4 27.275 11.475 27.2L13.575 25.1C14.35 24.325 15.575 24.25 16.4375 24.9125L18.5625 26.5C18.7 26.6 18.825 26.5625 18.8875 26.525C18.95 26.4875 19.0625 26.4125 19.0625 26.25V5C19.0625 4.4375 19.2 3.9 19.4375 3.4375H7.5C4.725 3.4375 3.4375 4.725 3.4375 7.5V26.25C3.4375 26.425 3.55 26.5 3.6125 26.5375C3.6875 26.575 3.8125 26.6 3.9375 26.5L6.075 24.9C6.4625 24.6125 6.925 24.4625 7.3875 24.4625Z" fill="#FF8A58"/>
<path d="M15 17.2H11.25C10.7375 17.2 10.3125 16.775 10.3125 16.2625C10.3125 15.75 10.7375 15.325 11.25 15.325H15C15.5125 15.325 15.9375 15.75 15.9375 16.2625C15.9375 16.775 15.5125 17.2 15 17.2Z" fill="#FF8A58"/>
<path d="M15 12.2H11.25C10.7375 12.2 10.3125 11.775 10.3125 11.2625C10.3125 10.75 10.7375 10.325 11.25 10.325H15C15.5125 10.325 15.9375 10.75 15.9375 11.2625C15.9375 11.775 15.5125 12.2 15 12.2Z" fill="#FF8A58"/>
<path d="M7.46265 12.5125C6.77515 12.5125 6.21265 11.95 6.21265 11.2625C6.21265 10.575 6.77515 10.0125 7.46265 10.0125C8.15015 10.0125 8.71265 10.575 8.71265 11.2625C8.71265 11.95 8.15015 12.5125 7.46265 12.5125Z" fill="#FF8A58"/>
<path d="M7.46265 17.5125C6.77515 17.5125 6.21265 16.95 6.21265 16.2625C6.21265 15.575 6.77515 15.0125 7.46265 15.0125C8.15015 15.0125 8.71265 15.575 8.71265 16.2625C8.71265 16.95 8.15015 17.5125 7.46265 17.5125Z" fill="#FF8A58"/>
</svg>
