<svg width="30" height="30" viewBox="0 0 30 30" fill="none" xmlns="http://www.w3.org/2000/svg">
<path d="M19.375 24.6875H10.625C7.2 24.6875 5.3125 22.8 5.3125 19.375V10.625C5.3125 7.2 7.2 5.3125 10.625 5.3125H19.375C22.8 5.3125 24.6875 7.2 24.6875 10.625V19.375C24.6875 22.8 22.8 24.6875 19.375 24.6875ZM10.625 7.1875C8.2125 7.1875 7.1875 8.2125 7.1875 10.625V19.375C7.1875 21.7875 8.2125 22.8125 10.625 22.8125H19.375C21.7875 22.8125 22.8125 21.7875 22.8125 19.375V10.625C22.8125 8.2125 21.7875 7.1875 19.375 7.1875H10.625Z" fill="#FF8A58"/>
<path d="M20 3.4375H10C9.4875 3.4375 9.0625 3.0125 9.0625 2.5C9.0625 1.9875 9.4875 1.5625 10 1.5625H20C20.5125 1.5625 20.9375 1.9875 20.9375 2.5C20.9375 3.0125 20.5125 3.4375 20 3.4375Z" fill="#FF8A58"/>
<path d="M20 28.4375H10C9.4875 28.4375 9.0625 28.0125 9.0625 27.5C9.0625 26.9875 9.4875 26.5625 10 26.5625H20C20.5125 26.5625 20.9375 26.9875 20.9375 27.5C20.9375 28.0125 20.5125 28.4375 20 28.4375Z" fill="#FF8A58"/>
<path d="M15 18.4375C14.4875 18.4375 14.0625 18.0125 14.0625 17.5V12.5C14.0625 11.9875 14.4875 11.5625 15 11.5625C15.5125 11.5625 15.9375 11.9875 15.9375 12.5V17.5C15.9375 18.025 15.5125 18.4375 15 18.4375Z" fill="#FF8A58"/>
<path d="M18.75 18.4375C18.2375 18.4375 17.8125 18.0125 17.8125 17.5V15C17.8125 14.4875 18.2375 14.0625 18.75 14.0625C19.2625 14.0625 19.6875 14.4875 19.6875 15V17.5C19.6875 18.025 19.275 18.4375 18.75 18.4375Z" fill="#FF8A58"/>
<path d="M11.25 18.4375C10.7375 18.4375 10.3125 18.0125 10.3125 17.5V16.25C10.3125 15.7375 10.7375 15.3125 11.25 15.3125C11.7625 15.3125 12.1875 15.7375 12.1875 16.25V17.5C12.1875 18.025 11.7625 18.4375 11.25 18.4375Z" fill="#FF8A58"/>
</svg>
